<svg width="65" height="65" viewBox="0 0 65 65" fill="none" xmlns="http://www.w3.org/2000/svg">
<path d="M26.5 3.4641C30.2128 1.32051 34.7872 1.32051 38.5 3.4641L54.6458 12.7859C58.3586 14.9295 60.6458 18.891 60.6458 23.1782V41.8218C60.6458 46.109 58.3586 50.0705 54.6458 52.2141L38.5 61.5359C34.7872 63.6795 30.2128 63.6795 26.5 61.5359L10.3542 52.2141C6.64136 50.0705 4.35417 46.109 4.35417 41.8218V23.1782C4.35417 18.891 6.64136 14.9295 10.3542 12.7859L26.5 3.4641Z" fill="#F3F3F5"/>
<path d="M24.607 26.3988C26.374 26.3988 27.8064 24.9664 27.8064 23.1994C27.8064 21.4324 26.374 20 24.607 20C22.8401 20 21.4077 21.4324 21.4077 23.1994C21.4077 24.9664 22.8401 26.3988 24.607 26.3988Z" fill="#0F0FD1"/>
<path d="M25.5704 26.9297H23.6435C22.4127 26.9297 21.2323 27.4183 20.3617 28.2882C19.491 29.158 19.0012 30.3379 19 31.5686V33.1935C18.9997 33.2641 19.0134 33.3341 19.0404 33.3993C19.0673 33.4646 19.107 33.5238 19.157 33.5737C19.207 33.6235 19.2664 33.6629 19.3318 33.6895C19.3972 33.7162 19.4672 33.7296 19.5378 33.729H29.6761C29.7467 33.7296 29.8167 33.7162 29.8821 33.6895C29.9474 33.6629 30.0069 33.6235 30.0569 33.5737C30.1069 33.5238 30.1466 33.4646 30.1735 33.3993C30.2005 33.3341 30.2142 33.2641 30.2139 33.1935V31.5686C30.2127 30.3379 29.7229 29.158 28.8522 28.2882C27.9815 27.4183 26.8012 26.9297 25.5704 26.9297Z" fill="#0F0FD1"/>
<path d="M40.3978 40.1302C42.1648 40.1302 43.5972 38.6977 43.5972 36.9308C43.5972 35.1638 42.1648 33.7314 40.3978 33.7314C38.6308 33.7314 37.1984 35.1638 37.1984 36.9308C37.1984 38.6977 38.6308 40.1302 40.3978 40.1302Z" fill="#0F0FD1"/>
<path d="M41.3611 40.661H39.4342C38.2034 40.661 37.0231 41.1496 36.1524 42.0194C35.2817 42.8893 34.7919 44.0692 34.7907 45.2999V46.9248C34.7904 46.9954 34.8041 47.0653 34.8311 47.1306C34.858 47.1958 34.8977 47.2551 34.9477 47.3049C34.9977 47.3547 35.0572 47.3941 35.1225 47.4208C35.1879 47.4475 35.2579 47.4609 35.3285 47.4603H45.4668C45.5368 47.4603 45.6062 47.4465 45.6708 47.4197C45.7355 47.3929 45.7943 47.3536 45.8438 47.3041C45.8934 47.2546 45.9326 47.1958 45.9594 47.1311C45.9862 47.0664 46 46.9971 46 46.9271V45.3022C45.9994 44.0718 45.5106 42.892 44.6408 42.0219C43.771 41.1517 42.5915 40.6622 41.3611 40.661Z" fill="#0F0FD1"/>
<path d="M42.8947 26.9001C42.789 26.8424 42.6731 26.8062 42.5534 26.7934C42.4338 26.7806 42.3128 26.7915 42.1974 26.8255C42.082 26.8595 41.9744 26.916 41.8808 26.9916C41.7872 27.0672 41.7095 27.1605 41.652 27.2662L41.4849 27.5729C40.9767 26.2904 40.1366 25.1661 39.0509 24.3152C37.9651 23.4643 36.6726 22.9173 35.3058 22.7303C35.1846 22.7091 35.0604 22.7125 34.9406 22.7404C34.8208 22.7683 34.7078 22.82 34.6084 22.8925C34.509 22.9651 34.4253 23.0569 34.3621 23.1625C34.299 23.2681 34.2579 23.3853 34.2411 23.5072C34.2243 23.6291 34.2323 23.7531 34.2645 23.8719C34.2967 23.9906 34.3526 24.1016 34.4287 24.1983C34.5048 24.2949 34.5996 24.3753 34.7074 24.4345C34.8153 24.4937 34.934 24.5306 35.0564 24.5429C36.1306 24.6909 37.1439 25.1296 37.9869 25.8116C38.8299 26.4937 39.4705 27.3931 39.8394 28.4128L39.1071 28.0077C39.0016 27.944 38.8843 27.9022 38.7623 27.8849C38.6402 27.8675 38.5159 27.8751 38.3969 27.9069C38.2778 27.9388 38.1664 27.9944 38.0693 28.0704C37.9723 28.1464 37.8916 28.2412 37.832 28.3492C37.7725 28.4571 37.7354 28.576 37.7229 28.6986C37.7105 28.8212 37.7229 28.9451 37.7595 29.0628C37.7961 29.1805 37.856 29.2897 37.9358 29.3836C38.0156 29.4776 38.1135 29.5545 38.2237 29.6097L40.6176 30.9165L40.6587 30.9393H40.6725C40.7234 30.9671 40.7771 30.9894 40.8327 31.0057L40.8807 31.0194C40.923 31.0287 40.9658 31.0356 41.0089 31.04H41.0867C41.1027 31.0412 41.1188 31.0412 41.1348 31.04C41.1569 31.0412 41.179 31.0412 41.2011 31.04H41.2629C41.3056 31.0326 41.3477 31.0219 41.3888 31.008H41.4277C41.632 30.93 41.8017 30.7815 41.906 30.5892L43.2585 28.1427C43.3163 28.0373 43.3526 27.9214 43.3656 27.8019C43.3786 27.6823 43.3678 27.5614 43.334 27.446C43.3002 27.3306 43.244 27.223 43.1687 27.1293C43.0933 27.0357 43.0002 26.9577 42.8947 26.9001Z" fill="#0F0FD1"/>
<path d="M22.1099 40.558C22.2156 40.6156 22.3315 40.6519 22.4511 40.6647C22.5708 40.6775 22.6918 40.6666 22.8072 40.6325C22.9226 40.5985 23.0302 40.5421 23.1238 40.4665C23.2174 40.3909 23.2951 40.2975 23.3526 40.1918L23.5197 39.8852C24.0279 41.1676 24.868 42.2919 25.9537 43.1429C27.0395 43.9938 28.332 44.5408 29.6988 44.7277C29.8199 44.749 29.9442 44.7455 30.064 44.7177C30.1838 44.6898 30.2968 44.638 30.3962 44.5655C30.4956 44.493 30.5793 44.4012 30.6424 44.2956C30.7056 44.19 30.7467 44.0727 30.7635 43.9508C30.7803 43.829 30.7723 43.705 30.7401 43.5862C30.7078 43.4675 30.652 43.3565 30.5759 43.2598C30.4998 43.1631 30.405 43.0828 30.2971 43.0236C30.1893 42.9644 30.0706 42.9275 29.9482 42.9152C28.874 42.7672 27.8607 42.3285 27.0177 41.6464C26.1747 40.9644 25.5341 40.0649 25.1651 39.0453L25.8975 39.4458C26.1073 39.5415 26.3454 39.5545 26.5644 39.4822C26.7833 39.41 26.9669 39.2577 27.0785 39.0559C27.1901 38.8542 27.2214 38.6177 27.1663 38.3938C27.1111 38.17 26.9734 37.9752 26.7809 37.8484L24.3825 36.5325L24.3413 36.5096H24.3275C24.2767 36.4818 24.2229 36.4596 24.1673 36.4432L24.1193 36.4295C24.077 36.4202 24.0342 36.4133 23.9911 36.4089H23.9133C23.8973 36.4077 23.8813 36.4077 23.8653 36.4089C23.8431 36.4077 23.821 36.4077 23.7989 36.4089H23.7371C23.6944 36.4163 23.6523 36.427 23.6112 36.4409H23.5723C23.368 36.5189 23.1983 36.6675 23.094 36.8597L21.7461 39.3153C21.6883 39.4208 21.652 39.5366 21.639 39.6562C21.626 39.7757 21.6368 39.8967 21.6706 40.0121C21.7043 40.1275 21.7605 40.2351 21.8359 40.3287C21.9113 40.4224 22.0044 40.5003 22.1099 40.558Z" fill="#0F0FD1"/>
</svg>
