<svg width="20" height="19" viewBox="0 0 20 19" fill="none" xmlns="http://www.w3.org/2000/svg">
<g clip-path="url(#clip0_7_203)">
<path d="M13.3255 2.81109H12.5286C12.4523 2.64985 12.3634 2.4957 12.2625 2.34942L12.6607 1.65966C12.7917 1.43285 12.714 1.14284 12.4872 1.01192L10.8446 0.0635897C10.7357 0.000689283 10.6062 -0.0163068 10.4848 0.016201C10.3633 0.048783 10.2597 0.128234 10.1969 0.23715L9.79929 0.925789C9.61987 0.910537 9.44434 0.910537 9.26492 0.925789L8.86733 0.23715C8.80443 0.128234 8.70085 0.048783 8.57943 0.016201C8.45801 -0.0163068 8.32854 0.000689283 8.21962 0.0635897L6.57705 1.01196C6.35024 1.14288 6.27253 1.43289 6.40349 1.6597L6.80171 2.34949C6.70077 2.49574 6.61193 2.64993 6.53563 2.81113H5.73871C5.47683 2.81113 5.26453 3.02343 5.26453 3.28531V5.18201C5.26453 5.44389 5.47683 5.65619 5.73871 5.65619H6.53563C6.61193 5.81736 6.70077 5.97155 6.80171 6.1178L6.40349 6.80759C6.27253 7.0344 6.35024 7.32441 6.57705 7.45533L8.21962 8.4037C8.3285 8.4666 8.45794 8.48356 8.57943 8.45109C8.70089 8.41851 8.80446 8.33905 8.86733 8.23014L9.26492 7.54143C9.44434 7.55675 9.61987 7.55675 9.79929 7.54143L10.1969 8.23006C10.2598 8.33898 10.3634 8.41843 10.4848 8.45101C10.5252 8.46181 10.5664 8.46716 10.6075 8.46716C10.6901 8.46716 10.7719 8.44559 10.8446 8.40362L12.4872 7.45526C12.714 7.32434 12.7917 7.03433 12.6608 6.80751L12.2625 6.11776C12.3635 5.97151 12.4523 5.81736 12.5286 5.65612H13.3255C13.5874 5.65612 13.7997 5.44382 13.7997 5.18194V4.70775V3.75939V3.28528C13.7997 3.0234 13.5874 2.81109 13.3255 2.81109ZM9.5321 5.62521C8.76472 5.62521 8.1405 5.00099 8.1405 4.23361C8.1405 3.46622 8.76472 2.84201 9.5321 2.84201C10.2995 2.84201 10.9237 3.46622 10.9237 4.23361C10.9237 5.00099 10.2995 5.62521 9.5321 5.62521Z" fill="#7C8A9E"/>
<path d="M3.00085 6.00817V4.79013H4.15125V3.67685H2.44421C2.1368 3.67685 1.88757 3.92608 1.88757 4.23349V6.00817C1.45603 6.10963 1.05989 6.32857 0.738593 6.6499C0.283001 7.10546 0.0321045 7.71119 0.0321045 8.35549C0.0321045 8.99978 0.283001 9.60555 0.738593 10.0611C0.955942 10.2785 1.30841 10.2785 1.52579 10.0611C1.74318 9.84376 1.74318 9.49129 1.52579 9.27391C1.0194 8.76751 1.0194 7.94346 1.52579 7.43707C1.77112 7.19177 2.09728 7.05666 2.44421 7.05666C2.79115 7.05666 3.1173 7.19177 3.36263 7.43707C3.86903 7.94346 3.86903 8.76751 3.36263 9.27391C3.14525 9.49126 3.14525 9.84372 3.36263 10.0611C3.47133 10.1698 3.61379 10.2242 3.75622 10.2242C3.89864 10.2242 4.04114 10.1698 4.1498 10.0611C4.60539 9.60555 4.85629 8.99978 4.85629 8.35549C4.85629 7.71119 4.60539 7.10542 4.1498 6.64987C3.82854 6.32857 3.4324 6.10963 3.00085 6.00817Z" fill="#7C8A9E"/>
<path d="M18.3256 6.64984C18.0043 6.32851 17.6082 6.1096 17.1766 6.00811V4.23343C17.1766 3.92601 16.9274 3.67679 16.62 3.67679H14.913V4.79007H16.0634V6.00811C15.6318 6.10957 15.2357 6.32851 14.9144 6.64984C14.4588 7.10543 14.2079 7.71117 14.2079 8.35546C14.2079 8.99976 14.4588 9.60553 14.9144 10.0611C15.1317 10.2784 15.4842 10.2784 15.7016 10.0611C15.919 9.84374 15.919 9.49127 15.7016 9.27388C15.1952 8.76749 15.1952 7.94344 15.7016 7.43704C15.9469 7.19175 16.2731 7.05664 16.62 7.05664C16.9669 7.05664 17.2931 7.19175 17.5384 7.43704C18.0448 7.94344 18.0448 8.76749 17.5384 9.27388C17.321 9.49123 17.321 9.8437 17.5384 10.0611C17.6471 10.1698 17.7896 10.2241 17.932 10.2241C18.0744 10.2241 18.2169 10.1698 18.3256 10.0611C18.7812 9.60553 19.0321 8.99976 19.0321 8.35546C19.0321 7.71117 18.7812 7.10543 18.3256 6.64984Z" fill="#7C8A9E"/>
<path d="M1.55359 19C2.37339 19 3.03796 18.3354 3.03796 17.5156C3.03796 16.6958 2.37339 16.0312 1.55359 16.0312C0.733791 16.0312 0.0692139 16.6958 0.0692139 17.5156C0.0692139 18.3354 0.733791 19 1.55359 19Z" fill="#7C8A9E"/>
<path d="M9.5321 19C10.3519 19 11.0165 18.3354 11.0165 17.5156C11.0165 16.6958 10.3519 16.0312 9.5321 16.0312C8.71231 16.0312 8.04773 16.6958 8.04773 17.5156C8.04773 18.3354 8.71231 19 9.5321 19Z" fill="#7C8A9E"/>
<path d="M11.662 16.0312C11.9563 16.4524 12.1297 16.964 12.1297 17.5156C12.1297 18.0673 11.9563 18.5789 11.662 19H15.3806C15.0863 18.5789 14.9129 18.0673 14.9129 17.5156C14.9129 16.964 15.0863 16.4524 15.3806 16.0312H11.662Z" fill="#7C8A9E"/>
<path d="M3.68347 16.0312C3.97782 16.4524 4.1512 16.964 4.1512 17.5156C4.1512 18.0673 3.97782 18.5789 3.68347 19H7.40212C7.10777 18.5789 6.9344 18.0673 6.9344 17.5156C6.9344 16.964 7.10777 16.4524 7.40212 16.0312H3.68347Z" fill="#7C8A9E"/>
<path d="M17.5106 19C18.3304 19 18.995 18.3354 18.995 17.5156C18.995 16.6958 18.3304 16.0312 17.5106 16.0312C16.6908 16.0312 16.0262 16.6958 16.0262 17.5156C16.0262 18.3354 16.6908 19 17.5106 19Z" fill="#7C8A9E"/>
<path d="M10.9237 11.5781H8.1405C7.83309 11.5781 7.58386 11.8274 7.58386 12.1348V14.918H11.4803V12.1348C11.4803 11.8274 11.2311 11.5781 10.9237 11.5781Z" fill="#7C8A9E"/>
<path d="M5.3573 11.5781H2.5741C2.26668 11.5781 2.01746 11.8274 2.01746 12.1348V14.918H5.91394V12.1348C5.91394 11.8274 5.66471 11.5781 5.3573 11.5781Z" fill="#7C8A9E"/>
<path d="M13.7069 11.5781C13.3995 11.5781 13.1503 11.8274 13.1503 12.1348V14.918H17.0468V12.1348C17.0468 11.8274 16.7975 11.5781 16.4901 11.5781H13.7069Z" fill="#7C8A9E"/>
</g>
<defs>
<clipPath id="clip0_7_203">
<rect width="19" height="19" fill="white" transform="translate(0.0321045)"/>
</clipPath>
</defs>
</svg>
