<svg width="20" height="19" viewBox="0 0 20 19" fill="none" xmlns="http://www.w3.org/2000/svg">
<g clip-path="url(#clip0_7_235)">
<path d="M5.45568 2.81165L5.55309 4.4664C7.62512 2.82091 10.4925 2.6097 12.7832 3.934C12.8743 3.98659 12.9357 4.07872 12.9494 4.18308C12.9632 4.28744 12.9274 4.3923 12.853 4.46673L12.3788 4.94091L15.9123 4.73334L16.1193 1.20139L15.5482 1.7715C15.4303 1.88876 15.2447 1.90315 15.1103 1.8054C11.5239 -0.803658 6.60482 -0.562847 3.29053 2.38394L5.13746 2.49228C5.3093 2.50253 5.44608 2.63997 5.45568 2.81165Z" fill="#7C8A9E"/>
<path d="M17.2571 15.0471C19.8666 11.4611 19.6258 6.54148 16.6785 3.22736L16.5702 5.07446C16.5599 5.2458 16.4232 5.38258 16.2517 5.3925L14.5971 5.49009C16.2424 7.56212 16.4534 10.4294 15.1295 12.7202C15.0769 12.8113 14.9847 12.8727 14.8804 12.8864C14.776 12.9 14.6712 12.8644 14.5967 12.7898L14.1226 12.3157L14.3301 15.8493L17.8637 16.0572L17.2926 15.4862C17.1742 15.3686 17.1592 15.1822 17.2571 15.0471Z" fill="#7C8A9E"/>
<path d="M12.2034 8.89766C12.1357 8.60078 12.018 8.31746 11.8554 8.05994C11.7712 7.92614 11.7907 7.75182 11.9025 7.64001L12.1979 7.34462L11.7189 6.86565L11.4236 7.16104C11.3117 7.27301 11.1371 7.29252 11.0033 7.20801C10.7458 7.04543 10.4625 6.92783 10.1656 6.86019C10.0113 6.82513 9.90194 6.68785 9.90211 6.52957V6.11295H9.22466V6.52957C9.22482 6.68785 9.11533 6.82513 8.96102 6.86019C8.66414 6.92783 8.38083 7.04543 8.12348 7.20801C7.98951 7.29252 7.81502 7.27301 7.70305 7.16104L7.40766 6.86565L6.92868 7.34462L7.22407 7.64001C7.33604 7.75182 7.35573 7.92647 7.27121 8.06028C7.10846 8.31779 6.99087 8.60111 6.92339 8.89799C6.88816 9.0523 6.75089 9.16162 6.59277 9.16146H6.17615V9.8389H6.59277C6.75089 9.83874 6.88816 9.94823 6.92339 10.1025C6.99087 10.3994 7.10846 10.6827 7.27121 10.9401C7.35573 11.0741 7.33604 11.2485 7.22407 11.3605L6.92868 11.6559L7.40766 12.1349L7.70305 11.8395C7.81502 11.7275 7.98951 11.7078 8.12348 11.7924C8.38083 11.9551 8.66414 12.0727 8.96102 12.1402C9.11533 12.1754 9.22482 12.3127 9.22466 12.4708V12.8874H9.90211V12.4708C9.90194 12.3127 10.0113 12.1754 10.1656 12.1402C10.4625 12.0727 10.7458 11.9551 11.0033 11.7924C11.1371 11.7078 11.3117 11.7275 11.4236 11.8395L11.7189 12.1349L12.1979 11.6559L11.9025 11.3605C11.7907 11.2487 11.7712 11.0744 11.8554 10.9404C12.018 10.6831 12.1357 10.3998 12.2034 10.1029C12.2383 9.94856 12.3754 9.83907 12.5337 9.8389H12.9506V9.16146H12.5337C12.3754 9.16146 12.2383 9.05197 12.2034 8.89766ZM9.56338 11.1938C8.62792 11.1938 7.86977 10.4356 7.86977 9.50018C7.86977 8.56489 8.62792 7.80656 9.56338 7.80656C10.4987 7.80656 11.257 8.56489 11.257 9.50018C11.2558 10.4351 10.4982 11.1928 9.56338 11.1938Z" fill="#7C8A9E"/>
<path d="M10.5796 9.50011C10.5796 10.0615 10.1246 10.5163 9.56341 10.5163C9.00207 10.5163 8.54724 10.0615 8.54724 9.50011C8.54724 8.93894 9.00207 8.48395 9.56341 8.48395C10.1246 8.48395 10.5796 8.93894 10.5796 9.50011Z" fill="#7C8A9E"/>
<path d="M13.5941 11.1362C13.7222 11.0781 13.8727 11.1051 13.9724 11.204L14.7516 11.9846C15.7815 9.83352 15.3787 7.27011 13.7387 5.53846L11.5282 5.66845C11.5216 5.66879 11.515 5.66879 11.5082 5.66845C11.3713 5.66845 11.2477 5.58592 11.1955 5.4594C11.143 5.33287 11.172 5.18716 11.2687 5.09024L12.0495 4.31125C9.89829 3.28185 7.33521 3.68458 5.60322 5.32411L5.73339 7.53457C5.74166 7.67483 5.66227 7.80565 5.53409 7.86337C5.40575 7.92093 5.25524 7.89331 5.15584 7.79407L4.37684 7.01491C3.34678 9.166 3.74951 11.7296 5.38954 13.4612L7.6 13.3311C7.73959 13.3236 7.86943 13.4027 7.92698 13.5302C7.98437 13.6577 7.95758 13.8072 7.8595 13.907L7.08051 14.686C9.23176 15.7154 11.7948 15.3126 13.5267 13.6733L13.3932 11.4648C13.3854 11.324 13.4653 11.1932 13.5941 11.1362ZM13.2893 10.5163H12.7927C12.7329 10.7055 12.6567 10.8891 12.5647 11.0647L12.9167 11.4163C13.0488 11.5486 13.0488 11.763 12.9167 11.8953L11.9584 12.8534C11.8261 12.9857 11.6118 12.9857 11.4794 12.8534L11.1278 12.5023C10.9522 12.5941 10.7686 12.67 10.5795 12.7295V13.226C10.5795 13.4131 10.4279 13.5648 10.2408 13.5648H8.88593C8.69887 13.5648 8.5472 13.4131 8.5472 13.226V12.7295C8.358 12.67 8.17441 12.5938 7.99876 12.502L7.64714 12.8534C7.51483 12.9857 7.30048 12.9857 7.16816 12.8534L6.20988 11.8953C6.07773 11.763 6.07773 11.5486 6.20988 11.4163L6.56118 11.0647C6.46938 10.8889 6.39347 10.7055 6.33393 10.5163H5.83742C5.65036 10.5163 5.4987 10.3646 5.4987 10.1775V8.82265C5.4987 8.63559 5.65036 8.48392 5.83742 8.48392H6.33393C6.39347 8.29488 6.46971 8.1113 6.56151 7.93565L6.20988 7.58403C6.07773 7.45171 6.07773 7.23736 6.20988 7.10505L7.16816 6.14677C7.30048 6.01462 7.51483 6.01462 7.64714 6.14677L7.99876 6.49806C8.17458 6.40627 8.358 6.33019 8.5472 6.27081V5.77414C8.5472 5.58708 8.69887 5.43542 8.88593 5.43542H10.2408C10.4279 5.43542 10.5795 5.58708 10.5795 5.77414V6.27081C10.7686 6.33035 10.9522 6.40643 11.1278 6.49839L11.4794 6.14677C11.6118 6.01462 11.8261 6.01462 11.9584 6.14677L12.9167 7.10505C13.0488 7.23736 13.0488 7.45171 12.9167 7.58403L12.5651 7.93565C12.657 8.1113 12.7331 8.29488 12.7927 8.48392H13.2893C13.4764 8.48392 13.628 8.63559 13.628 8.82265V10.1775C13.628 10.3646 13.4764 10.5163 13.2893 10.5163Z" fill="#7C8A9E"/>
<path d="M3.99704 6.28025C4.0498 6.18912 4.14175 6.12776 4.24628 6.11403C4.35064 6.1003 4.45534 6.13603 4.52976 6.21045L5.00411 6.68463L4.79638 3.15119L1.26459 2.94412L1.83569 3.51522C1.95295 3.63315 1.96718 3.81872 1.86943 3.95318C-0.740126 7.53921 -0.49948 12.4588 2.44764 15.7729L2.55647 13.9258C2.56656 13.7545 2.70334 13.6179 2.87485 13.6078L4.52943 13.5104C2.88428 11.4383 2.67307 8.57093 3.99704 6.28025ZM1.58463 11.1261L0.921073 11.2615C0.581358 9.61141 0.726737 7.89811 1.33935 6.32871L1.97049 6.57465C1.40534 8.02265 1.27121 9.60347 1.58463 11.1261ZM2.25728 5.92465L1.64996 5.62447C1.76755 5.3873 1.89854 5.15029 2.03879 4.92023L2.61634 5.27384C2.48668 5.48521 2.36577 5.70402 2.25728 5.92432V5.92465Z" fill="#7C8A9E"/>
<path d="M13.6711 16.1887L13.5735 14.5341C11.5017 16.1797 8.63409 16.3908 6.34341 15.0665C6.25244 15.0137 6.19108 14.9217 6.17752 14.8174C6.16379 14.7132 6.19935 14.6085 6.27361 14.5341L6.74795 14.0597L3.21402 14.2675L3.00745 17.7989L3.57855 17.2278C3.6963 17.1106 3.88187 17.0963 4.0165 17.1941C7.60237 19.804 12.5223 19.5632 15.8363 16.6155L13.9892 16.507C13.8178 16.4969 13.681 16.36 13.6711 16.1887Z" fill="#7C8A9E"/>
</g>
<defs>
<clipPath id="clip0_7_235">
<rect width="19" height="19" fill="white" transform="translate(0.0321045)"/>
</clipPath>
</defs>
</svg>
