<svg width="20" height="26" viewBox="0 0 20 26" fill="none" xmlns="http://www.w3.org/2000/svg">
<path d="M12.6719 16.7244C12.6719 18.4688 11.2496 19.8911 9.47843 19.8911C7.73408 19.8911 6.31176 18.4688 6.31176 16.7244C6.31176 16.4561 6.3386 16.1609 6.41911 15.9194H0.703003V17.5295C0.703003 17.8516 0.944529 18.1468 1.2934 18.1736L2.98408 18.3614C3.19877 18.3883 3.35978 18.5225 3.41346 18.7103C3.5208 19.0323 3.65498 19.3544 3.78916 19.6496C3.89651 19.8374 3.86967 20.0521 3.73549 20.1863L2.66204 21.5281C2.44735 21.7696 2.47419 22.1453 2.71572 22.3869L3.84283 23.4872C4.08436 23.7287 4.43323 23.7555 4.70159 23.5408L6.0434 22.4674C6.20442 22.3332 6.41911 22.3332 6.58012 22.4137C6.90216 22.5747 7.19735 22.6821 7.51939 22.7894C7.70724 22.8431 7.86826 23.0041 7.86826 23.2188L8.05611 24.9095C8.08295 25.2315 8.37815 25.4999 8.70018 25.4999H10.2835C10.6055 25.4999 10.8739 25.2583 10.9276 24.9095L11.0886 23.2188C11.1154 23.0041 11.2496 22.8431 11.4375 22.7894C11.7595 22.6821 12.0815 22.5479 12.3767 22.4137C12.5646 22.3064 12.7793 22.3332 12.9403 22.4674L14.2553 23.5408C14.5236 23.7555 14.8725 23.7287 15.114 23.4872L16.2411 22.36C16.4827 22.1185 16.4827 21.7696 16.2948 21.5013L15.2214 20.1595C15.0872 19.9984 15.0872 19.7838 15.1677 19.6227C15.3287 19.3007 15.4629 19.0055 15.5702 18.6835C15.6239 18.4956 15.7849 18.3346 15.9996 18.3346L17.7171 18.1468C18.0392 18.1199 18.2807 17.8247 18.2807 17.5027C18.2807 17.5027 18.2807 15.9194 18.2807 15.8925H12.5646C12.6183 16.1609 12.6719 16.4292 12.6719 16.7244Z" fill="#7C8A9E"/>
<path d="M18.3075 12.2159H14.5505V6.44615C14.5505 6.17779 14.3358 5.9631 14.0674 5.9631H12.4572C12.1889 5.9631 11.9742 6.17779 11.9742 6.44615V12.2159H10.7934V8.37836C10.7934 8.11 10.5787 7.89531 10.3104 7.89531H8.70018C8.43182 7.89531 8.21713 8.11 8.21713 8.37836V12.2159H7.03634V10.3106C7.03634 10.0422 6.82165 9.82751 6.55329 9.82751H4.94312C4.67476 9.82751 4.46007 10.0422 4.46007 10.3106V12.2159H0.703008C0.327302 12.2159 0.0321045 12.5111 0.0321045 12.8868V13.7188C0.0321045 14.0945 0.327302 14.3897 0.703008 14.3897H18.3612C18.7369 14.3897 19.0321 14.0945 19.0321 13.7188V12.8868C18.9784 12.5111 18.6832 12.2159 18.3075 12.2159Z" fill="#7C8A9E"/>
<path d="M5.29206 8.61989L11.518 3.68204L12.2158 4.46029C12.511 4.78232 13.0477 4.64814 13.1551 4.21876L14.0138 0.676388C14.0943 0.300682 13.7991 -0.0481882 13.4234 0.0054841L9.80053 0.488535C9.37115 0.542207 9.1833 1.05209 9.4785 1.37413L10.1762 2.15238L4.56748 7.78797C4.37963 7.97582 4.35279 8.29786 4.51381 8.53938C4.70166 8.75407 5.05053 8.80774 5.29206 8.61989Z" fill="#7C8A9E"/>
</svg>
