<svg width="20" height="18" viewBox="0 0 20 18" fill="none" xmlns="http://www.w3.org/2000/svg">
<path d="M17.4281 1.60759C15.285 -0.535863 11.8102 -0.535863 9.66712 1.60759L9.5326 1.74213L9.39809 1.60759C7.25499 -0.535863 3.7802 -0.535863 1.6371 1.60759C0.146904 3.0983 -0.30436 5.23231 0.278186 7.11558H4.9399L7.65611 2.75292L10.5702 11.0851L12.4984 7.15252H18.7738C19.3744 5.26035 18.9283 3.108 17.4281 1.60759Z" fill="#7C8A9E"/>
<path d="M10.3812 14.1687L7.34476 5.48547L5.6389 8.22532H0.766113C1.00172 8.63379 1.28801 9.02069 1.63683 9.37011L1.77135 9.50465L9.53234 17.2669L17.2933 9.50465L17.4278 9.37011C17.7664 9.03147 18.0452 8.65697 18.2765 8.26252H13.2775L10.3812 14.1687Z" fill="#7C8A9E"/>
</svg>
