<svg width="19" height="20" viewBox="0 0 19 20" fill="none" xmlns="http://www.w3.org/2000/svg">
<path d="M17.4638 8.35402L10.7138 0.755632C10.5027 0.51801 10.2437 0.327818 9.95382 0.197578C9.66397 0.0673368 9.34984 0 9.0321 0C8.71437 0 8.40024 0.0673368 8.11038 0.197578C7.82053 0.327818 7.56154 0.51801 7.35044 0.755632L0.600443 8.35402C0.234332 8.76614 0.032101 9.29838 0.0321045 9.84978V15.7479C0.0321045 16.6436 0.387684 17.5026 1.02062 18.1359C1.65355 18.7692 2.512 19.125 3.4071 19.125H5.6571C5.95547 19.125 6.24162 19.0064 6.4526 18.7953C6.66358 18.5842 6.7821 18.2979 6.7821 17.9993V15.8684C6.76994 15.3204 6.95083 14.7856 7.29309 14.3576C7.63535 13.9296 8.11717 13.6357 8.65418 13.5274C8.97705 13.4726 9.30797 13.489 9.62387 13.5753C9.93976 13.6617 10.233 13.8159 10.4832 14.0273C10.7334 14.2387 10.9345 14.5022 11.0725 14.7994C11.2105 15.0966 11.282 15.4203 11.2821 15.7479V17.9993C11.2821 18.2979 11.4006 18.5842 11.6116 18.7953C11.8226 19.0064 12.1087 19.125 12.4071 19.125H14.6571C15.5522 19.125 16.4107 18.7692 17.0436 18.1359C17.6765 17.5026 18.0321 16.6436 18.0321 15.7479V9.84978C18.0321 9.29838 17.8299 8.76614 17.4638 8.35402Z" fill="#0F0FD1"/>
</svg>
