<svg width="20" height="19" viewBox="0 0 20 19" fill="none" xmlns="http://www.w3.org/2000/svg">
<path d="M18.8197 8.00778C18.7606 7.97823 17.9039 7.74184 17.254 7.56454C17.0473 6.79627 16.7519 6.05754 16.3383 5.37792L17.1359 3.95956C17.195 3.84137 17.195 3.69362 17.0768 3.60498L15.4225 1.95023C15.3339 1.86159 15.1862 1.83204 15.0681 1.89114L13.6206 2.68896C12.9412 2.27527 12.2027 1.97978 11.4346 1.80249L10.9915 0.206843C10.962 0.088647 10.8438 0 10.6961 0H8.36244C8.21474 0 8.12612 0.088647 8.06703 0.206843L7.62393 1.80249C6.85589 1.97978 6.14692 2.30482 5.43796 2.71851L3.99049 1.92068C3.87233 1.86159 3.72463 1.86159 3.63601 1.97978L1.98176 3.63453C1.89314 3.72317 1.8636 3.87092 1.92268 3.98911L2.72026 5.40746C2.3067 6.08709 2.0113 6.82582 1.80452 7.59409L0.238886 8.03732C0.120725 8.06687 0.0321045 8.18507 0.0321045 8.33282V10.6672C0.0321045 10.8149 0.120725 10.9036 0.238886 10.9627L1.80452 11.4059C2.0113 12.1742 2.3067 12.9129 2.72026 13.5925L1.92268 15.0109C1.8636 15.1291 1.8636 15.2768 1.98176 15.3655L3.63601 17.0202C3.72463 17.1089 3.87233 17.1384 3.99049 17.0793L5.43796 16.2815C6.11738 16.6952 6.85589 16.9907 7.62393 17.1975L8.06703 18.7932C8.09657 18.9114 8.21474 19 8.36244 19H10.6961C10.8143 19 10.9324 18.9114 10.9915 18.7932L11.4346 17.1975C12.2027 17.0202 12.9412 16.6952 13.6206 16.2815L15.0681 17.0793C15.1862 17.1384 15.3339 17.1089 15.4225 17.0202L17.0768 15.3655C17.1654 15.2768 17.195 15.1291 17.1359 15.0109L16.3383 13.5925C16.7519 12.9129 17.0473 12.1742 17.254 11.4059L18.8197 10.9627C18.9378 10.9331 19.0264 10.8149 19.0264 10.6672V8.36236C19.056 8.15552 18.9674 8.03732 18.8197 8.00778ZM9.60313 14.1835C7.00359 14.1835 4.8767 12.056 4.8767 9.45568C4.8767 6.85537 7.00359 4.72784 9.60313 4.72784C12.2027 4.72784 14.3296 6.85537 14.3296 9.45568C14.3296 12.056 12.2027 14.1835 9.60313 14.1835Z" fill="#7C8A9E"/>
<path d="M7.94922 8.36232C7.94922 7.4463 8.68794 6.70758 9.60396 6.70758C10.52 6.70758 11.2587 7.4463 11.2587 8.36232C11.2587 9.27834 10.52 10.0171 9.60396 10.0171C8.68794 10.0171 7.94922 9.27834 7.94922 8.36232Z" fill="#7C8A9E"/>
<path d="M12.9411 12.0855C12.882 12.1446 12.7934 12.2037 12.7048 12.2037H6.47179C6.38316 12.2037 6.29454 12.1741 6.23546 12.0855C6.17638 12.0264 6.14684 11.9378 6.17638 11.8491C6.38316 11.0217 6.85581 10.283 7.53523 9.81023C7.65339 9.72158 7.83063 9.75113 7.91925 9.83978C8.33282 10.3126 8.95316 10.5785 9.57351 10.5785C10.1939 10.5785 10.8142 10.3126 11.2278 9.83978C11.3164 9.72158 11.4936 9.72158 11.6118 9.81023C12.2912 10.3126 12.7638 11.0217 12.9706 11.8491C13.0297 11.9378 13.0002 12.0264 12.9411 12.0855Z" fill="#7C8A9E"/>
</svg>
