<svg width="20" height="19" viewBox="0 0 20 19" fill="none" xmlns="http://www.w3.org/2000/svg">
<g clip-path="url(#clip0_7_231)">
<path d="M9.53216 7.47358C10.3741 7.47358 11.0566 6.79105 11.0566 5.94912C11.0566 5.10718 10.3741 4.42465 9.53216 4.42465C8.69022 4.42465 8.00769 5.10718 8.00769 5.94912C8.00769 6.79105 8.69022 7.47358 9.53216 7.47358Z" fill="#7C8A9E"/>
<path d="M19.0135 2.31309V0H17.898V1.85129L16.7082 3.04112V5.39139H15.444V4.20157H14.2389C14.1954 4.08481 14.1478 3.96992 14.0958 3.85652L14.948 3.00431L12.4769 0.53319L11.6247 1.3854C11.5113 1.33335 11.3964 1.28575 11.2796 1.24225V0.037182H7.78451V1.24225C7.66776 1.28575 7.55287 1.33335 7.43947 1.3854L6.58725 0.53319L4.11614 3.00431L4.96835 3.85652C4.9163 3.96992 4.8687 4.08481 4.8252 4.20157H3.62013V5.39139H2.35594V3.04112L1.16612 1.85129V0H0.0506592V2.31309L1.24048 3.50292V13.1252H0.0506592V19H4.73559V16.6204H6.59469V19H12.4694V16.6204H14.3285V19H19.0135V13.1252H17.8237V3.50292L19.0135 2.31309ZM9.53207 3.3092C10.9877 3.3092 12.172 4.49344 12.172 5.94912C12.172 7.40479 10.9877 8.58904 9.53207 8.58904C8.07639 8.58904 6.89215 7.40479 6.89215 5.94912C6.89215 4.49344 8.07639 3.3092 9.53207 3.3092ZM6.59469 15.5049H4.73559V13.1252H2.35594V6.50685H3.62013V7.69667H4.8252C4.8687 7.81342 4.9163 7.92832 4.96835 8.04172L4.11614 8.89393L6.58725 11.365L7.43947 10.5128C7.55287 10.5649 7.66776 10.6125 7.78451 10.656V11.8611H8.97434V13.1252H6.59469V15.5049ZM10.0898 16.6204H8.97434V15.5049H10.0898V16.6204ZM16.7082 13.1252H14.3285V15.5049H12.4694V13.1252H10.0898V11.8611H11.2796V10.656C11.3964 10.6125 11.5113 10.5649 11.6247 10.5128L12.4769 11.365L14.948 8.89393L14.0958 8.04172C14.1478 7.92832 14.1954 7.81342 14.2389 7.69667H15.444V6.50685H16.7082V13.1252Z" fill="#7C8A9E"/>
</g>
<defs>
<clipPath id="clip0_7_231">
<rect width="19" height="19" fill="white" transform="translate(0.0321045)"/>
</clipPath>
</defs>
</svg>
