<svg width="20" height="19" viewBox="0 0 20 19" fill="none" xmlns="http://www.w3.org/2000/svg">
<path d="M9.5321 0L7.87147 1.14111L5.89539 0.723633L4.7914 2.41211L2.81531 2.7832L2.44421 4.76855L0.755737 5.87256L1.16394 7.83934L0.0321045 9.5L1.16394 11.1699L0.755737 13.1367L2.44421 14.2407L2.81531 16.2261L4.7914 16.5972L5.89539 18.2856L7.87147 17.8682L9.5321 19L11.1927 17.8682L13.1688 18.2856L14.2728 16.5972L16.2489 16.2261L16.62 14.2407L18.3085 13.1367L17.9003 11.1699L19.0321 9.5L17.9003 7.83934L18.3085 5.87256L16.62 4.76855L16.2489 2.7832L14.2728 2.41211L13.1688 0.723633L11.1927 1.14111L9.5321 0ZM9.5321 2.68115C13.2997 2.68115 16.3602 5.74171 16.3602 9.50926C16.3602 13.2768 13.2997 16.3374 9.5321 16.3374C5.76455 16.3374 2.70398 13.2768 2.70398 9.50926C2.70398 5.74171 5.76455 2.68115 9.5321 2.68115ZM9.5321 3.2749C6.08544 3.2749 3.29773 6.06259 3.29773 9.50926C3.29773 12.9559 6.08544 15.7436 9.5321 15.7436C12.9788 15.7436 15.7665 12.9559 15.7665 9.50926C15.7665 6.06259 12.9788 3.2749 9.5321 3.2749ZM12.4173 6.54053L13.7162 7.75586L9.26305 12.5059L8.6693 13.1367L8.01991 12.5615L5.34804 10.1865L6.53554 8.85985L8.55797 10.6596L12.4173 6.54053Z" fill="#7C8A9E"/>
</svg>
