<svg width="20" height="19" viewBox="0 0 20 19" fill="none" xmlns="http://www.w3.org/2000/svg">
<g clip-path="url(#clip0_7_247)">
<path d="M13.5749 8.94361H14.4491C14.1923 6.65867 12.3734 4.83977 10.0884 4.58292V5.45707H8.97569V4.58292C6.69074 4.83977 4.87184 6.65867 4.61499 8.94361H5.48915V10.0563H4.61499C4.87184 12.3413 6.69074 14.1602 8.97569 14.417V13.5429H10.0884V14.417C12.3734 14.1602 14.1923 12.3413 14.4491 10.0563H13.5749V8.94361ZM10.7146 11.4693L8.97569 9.73042V6.56987H10.0884V9.26953L11.5014 10.6826L10.7146 11.4693Z" fill="#7C8A9E"/>
<path d="M19.0321 11.7016V7.29844H17.6363C17.4495 6.60799 17.1758 5.94763 16.8191 5.32654L17.8064 4.33926L14.6929 1.22574L13.7056 2.21306C13.0845 1.85628 12.4241 1.58263 11.7337 1.3958V0H7.3305V1.39577C6.6401 1.58259 5.97973 1.85628 5.35861 2.21302L4.37132 1.2257L1.25781 4.33926L2.24513 5.32654C1.88839 5.94763 1.61473 6.60799 1.42791 7.29844H0.0321045V11.7016H1.42791C1.61473 12.3921 1.88835 13.0523 2.24513 13.6735L1.25781 14.6608L4.37132 17.7743L5.35861 16.787C5.97973 17.1438 6.6401 17.4174 7.3305 17.6043V19H11.7337V17.6043C12.4241 17.4174 13.0844 17.1438 13.7056 16.787L14.6928 17.7743L17.8064 14.6608L16.819 13.6735C17.1758 13.0524 17.4494 12.3922 17.6363 11.7016H19.0321ZM9.5321 15.5612C6.18992 15.5612 3.47087 12.8422 3.47087 9.5C3.47087 6.15782 6.18992 3.43877 9.5321 3.43877C12.8743 3.43877 15.5933 6.15782 15.5933 9.5C15.5933 12.8422 12.8743 15.5612 9.5321 15.5612Z" fill="#7C8A9E"/>
</g>
<defs>
<clipPath id="clip0_7_247">
<rect width="19" height="19" fill="white" transform="translate(0.0321045)"/>
</clipPath>
</defs>
</svg>
