<svg width="616" height="259" viewBox="0 0 616 259" fill="none" xmlns="http://www.w3.org/2000/svg">
<circle cx="371" cy="10" r="5" fill="#824AED"/>
<path d="M393.957 14.5898C393.232 14.9727 392.33 15.1641 391.25 15.1641C389.855 15.1641 388.739 14.7152 387.9 13.8174C387.062 12.9196 386.643 11.7415 386.643 10.2832C386.643 8.71549 387.114 7.44857 388.058 6.48242C389.001 5.51628 390.197 5.0332 391.646 5.0332C392.576 5.0332 393.346 5.16764 393.957 5.43652V6.66016C393.255 6.26823 392.48 6.07227 391.633 6.07227C390.507 6.07227 389.593 6.44824 388.892 7.2002C388.194 7.95215 387.846 8.95703 387.846 10.2148C387.846 11.4089 388.172 12.3613 388.823 13.0723C389.479 13.7786 390.339 14.1318 391.4 14.1318C392.385 14.1318 393.237 13.9131 393.957 13.4756V14.5898ZM401.463 15H400.342V13.8926H400.314C399.85 14.7402 399.13 15.1641 398.154 15.1641C396.486 15.1641 395.652 14.1706 395.652 12.1836V8H396.767V12.0059C396.767 13.4824 397.332 14.2207 398.462 14.2207C399.009 14.2207 399.458 14.0202 399.809 13.6191C400.164 13.2135 400.342 12.6849 400.342 12.0332V8H401.463V15ZM407.383 9.13477C407.187 8.98438 406.904 8.90918 406.535 8.90918C406.057 8.90918 405.656 9.13477 405.332 9.58594C405.013 10.0371 404.854 10.6523 404.854 11.4316V15H403.732V8H404.854V9.44238H404.881C405.04 8.9502 405.284 8.56738 405.612 8.29395C405.94 8.01595 406.307 7.87695 406.713 7.87695C407.005 7.87695 407.228 7.90885 407.383 7.97266V9.13477ZM412.25 9.13477C412.054 8.98438 411.771 8.90918 411.402 8.90918C410.924 8.90918 410.523 9.13477 410.199 9.58594C409.88 10.0371 409.721 10.6523 409.721 11.4316V15H408.6V8H409.721V9.44238H409.748C409.908 8.9502 410.151 8.56738 410.479 8.29395C410.808 8.01595 411.174 7.87695 411.58 7.87695C411.872 7.87695 412.095 7.90885 412.25 7.97266V9.13477ZM418.901 11.7803H413.959C413.977 12.5596 414.187 13.1611 414.588 13.585C414.989 14.0088 415.54 14.2207 416.242 14.2207C417.031 14.2207 417.755 13.9609 418.416 13.4414V14.4941C417.801 14.9408 416.987 15.1641 415.976 15.1641C414.987 15.1641 414.21 14.8473 413.645 14.2139C413.079 13.5758 412.797 12.6803 412.797 11.5273C412.797 10.4382 413.104 9.55176 413.72 8.86816C414.34 8.18001 415.107 7.83594 416.023 7.83594C416.939 7.83594 417.648 8.13216 418.149 8.72461C418.651 9.31706 418.901 10.1396 418.901 11.1924V11.7803ZM417.753 10.8301C417.748 10.1829 417.591 9.67936 417.281 9.31934C416.976 8.95931 416.55 8.7793 416.003 8.7793C415.474 8.7793 415.025 8.96842 414.656 9.34668C414.287 9.72493 414.059 10.2194 413.973 10.8301H417.753ZM426.414 15H425.293V11.0078C425.293 9.52214 424.751 8.7793 423.666 8.7793C423.105 8.7793 422.641 8.99121 422.271 9.41504C421.907 9.83431 421.725 10.3652 421.725 11.0078V15H420.604V8H421.725V9.16211H421.752C422.281 8.27799 423.046 7.83594 424.049 7.83594C424.814 7.83594 425.4 8.08431 425.806 8.58105C426.211 9.07324 426.414 9.78646 426.414 10.7207V15ZM431.78 14.9316C431.516 15.0775 431.167 15.1504 430.734 15.1504C429.508 15.1504 428.896 14.4668 428.896 13.0996V8.95703H427.692V8H428.896V6.29102L430.017 5.92871V8H431.78V8.95703H430.017V12.9014C430.017 13.3708 430.096 13.7057 430.256 13.9062C430.415 14.1068 430.68 14.207 431.049 14.207C431.331 14.207 431.575 14.1296 431.78 13.9746V14.9316ZM447.264 15H446.122V8.42383C446.122 7.9043 446.154 7.26855 446.218 6.5166H446.19C446.081 6.95866 445.983 7.27539 445.896 7.4668L442.547 15H441.986L438.644 7.52148C438.548 7.30273 438.45 6.96777 438.35 6.5166H438.322C438.359 6.90853 438.377 7.54883 438.377 8.4375V15H437.27V5.19727H438.787L441.795 12.0332C442.027 12.5573 442.178 12.9492 442.246 13.209H442.287C442.483 12.6712 442.64 12.2702 442.759 12.0059L445.828 5.19727H447.264V15ZM452.623 15.1641C451.589 15.1641 450.761 14.8382 450.142 14.1865C449.526 13.5303 449.219 12.6621 449.219 11.582C449.219 10.4062 449.54 9.48796 450.183 8.82715C450.825 8.16634 451.693 7.83594 452.787 7.83594C453.831 7.83594 454.644 8.15723 455.228 8.7998C455.815 9.44238 456.109 10.3333 456.109 11.4727C456.109 12.5892 455.793 13.4847 455.159 14.1592C454.53 14.8291 453.685 15.1641 452.623 15.1641ZM452.705 8.7793C451.985 8.7793 451.415 9.02539 450.996 9.51758C450.577 10.0052 450.367 10.6797 450.367 11.541C450.367 12.3704 450.579 13.0244 451.003 13.5029C451.427 13.9814 451.994 14.2207 452.705 14.2207C453.43 14.2207 453.986 13.986 454.373 13.5166C454.765 13.0472 454.961 12.3796 454.961 11.5137C454.961 10.6387 454.765 9.96419 454.373 9.49023C453.986 9.01628 453.43 8.7793 452.705 8.7793ZM463.711 15H462.59V11.0078C462.59 9.52214 462.048 8.7793 460.963 8.7793C460.402 8.7793 459.938 8.99121 459.568 9.41504C459.204 9.83431 459.021 10.3652 459.021 11.0078V15H457.9V8H459.021V9.16211H459.049C459.577 8.27799 460.343 7.83594 461.346 7.83594C462.111 7.83594 462.697 8.08431 463.103 8.58105C463.508 9.07324 463.711 9.78646 463.711 10.7207V15ZM469.077 14.9316C468.813 15.0775 468.464 15.1504 468.031 15.1504C466.805 15.1504 466.192 14.4668 466.192 13.0996V8.95703H464.989V8H466.192V6.29102L467.313 5.92871V8H469.077V8.95703H467.313V12.9014C467.313 13.3708 467.393 13.7057 467.553 13.9062C467.712 14.1068 467.977 14.207 468.346 14.207C468.628 14.207 468.872 14.1296 469.077 13.9746V14.9316ZM476.385 15H475.264V10.9668C475.264 9.50846 474.721 8.7793 473.637 8.7793C473.09 8.7793 472.63 8.99121 472.256 9.41504C471.882 9.83431 471.695 10.3743 471.695 11.0352V15H470.574V4.63672H471.695V9.16211H471.723C472.26 8.27799 473.026 7.83594 474.02 7.83594C475.596 7.83594 476.385 8.78613 476.385 10.6865V15Z" fill="#6B778C"/>
<circle cx="531" cy="11" r="5" fill="#3AAFE4"/>
<path d="M552.371 15H547.285V5.19727H548.434V13.9609H552.371V15ZM558.735 15H557.614V13.9062H557.587C557.099 14.7448 556.382 15.1641 555.434 15.1641C554.736 15.1641 554.189 14.9795 553.793 14.6104C553.401 14.2412 553.205 13.7513 553.205 13.1406C553.205 11.8327 553.975 11.0716 555.516 10.8574L557.614 10.5635C557.614 9.37402 557.133 8.7793 556.172 8.7793C555.329 8.7793 554.568 9.06641 553.889 9.64062V8.49219C554.577 8.05469 555.37 7.83594 556.268 7.83594C557.913 7.83594 558.735 8.70638 558.735 10.4473V15ZM557.614 11.459L555.926 11.6914C555.406 11.7643 555.014 11.8942 554.75 12.0811C554.486 12.2633 554.354 12.5892 554.354 13.0586C554.354 13.4004 554.474 13.6807 554.716 13.8994C554.962 14.1136 555.288 14.2207 555.693 14.2207C556.249 14.2207 556.707 14.027 557.067 13.6396C557.432 13.2477 557.614 12.7533 557.614 12.1562V11.459ZM560.424 14.7471V13.5439C560.971 13.9951 561.577 14.2207 562.242 14.2207C563.131 14.2207 563.575 13.8926 563.575 13.2363C563.575 12.9629 563.477 12.7373 563.281 12.5596C563.085 12.3818 562.702 12.1699 562.133 11.9238C561.463 11.6276 561.012 11.3245 560.779 11.0146C560.551 10.7002 560.438 10.3151 560.438 9.85938C560.438 9.27604 560.668 8.79297 561.128 8.41016C561.588 8.02734 562.181 7.83594 562.905 7.83594C563.461 7.83594 563.96 7.94076 564.402 8.15039V9.28516C563.942 8.94792 563.413 8.7793 562.816 8.7793C562.443 8.7793 562.144 8.87044 561.921 9.05273C561.698 9.23503 561.586 9.47201 561.586 9.76367C561.586 10.0462 561.666 10.2741 561.825 10.4473C561.989 10.6204 562.354 10.8255 562.919 11.0625C563.607 11.3542 564.079 11.6595 564.334 11.9785C564.594 12.2975 564.724 12.6803 564.724 13.127C564.724 13.724 564.493 14.2139 564.033 14.5967C563.573 14.9749 562.949 15.1641 562.16 15.1641C561.495 15.1641 560.916 15.0251 560.424 14.7471ZM569.673 14.9316C569.409 15.0775 569.06 15.1504 568.627 15.1504C567.401 15.1504 566.788 14.4668 566.788 13.0996V8.95703H565.585V8H566.788V6.29102L567.909 5.92871V8H569.673V8.95703H567.909V12.9014C567.909 13.3708 567.989 13.7057 568.148 13.9062C568.308 14.1068 568.572 14.207 568.941 14.207C569.224 14.207 569.468 14.1296 569.673 13.9746V14.9316ZM585.156 15H584.015V8.42383C584.015 7.9043 584.047 7.26855 584.11 6.5166H584.083C583.974 6.95866 583.876 7.27539 583.789 7.4668L580.439 15H579.879L576.536 7.52148C576.44 7.30273 576.342 6.96777 576.242 6.5166H576.215C576.251 6.90853 576.27 7.54883 576.27 8.4375V15H575.162V5.19727H576.68L579.688 12.0332C579.92 12.5573 580.07 12.9492 580.139 13.209H580.18C580.376 12.6712 580.533 12.2702 580.651 12.0059L583.721 5.19727H585.156V15ZM590.516 15.1641C589.481 15.1641 588.654 14.8382 588.034 14.1865C587.419 13.5303 587.111 12.6621 587.111 11.582C587.111 10.4062 587.433 9.48796 588.075 8.82715C588.718 8.16634 589.586 7.83594 590.68 7.83594C591.723 7.83594 592.537 8.15723 593.12 8.7998C593.708 9.44238 594.002 10.3333 594.002 11.4727C594.002 12.5892 593.685 13.4847 593.052 14.1592C592.423 14.8291 591.577 15.1641 590.516 15.1641ZM590.598 8.7793C589.878 8.7793 589.308 9.02539 588.889 9.51758C588.469 10.0052 588.26 10.6797 588.26 11.541C588.26 12.3704 588.472 13.0244 588.896 13.5029C589.319 13.9814 589.887 14.2207 590.598 14.2207C591.322 14.2207 591.878 13.986 592.266 13.5166C592.658 13.0472 592.854 12.3796 592.854 11.5137C592.854 10.6387 592.658 9.96419 592.266 9.49023C591.878 9.01628 591.322 8.7793 590.598 8.7793ZM601.604 15H600.482V11.0078C600.482 9.52214 599.94 8.7793 598.855 8.7793C598.295 8.7793 597.83 8.99121 597.461 9.41504C597.096 9.83431 596.914 10.3652 596.914 11.0078V15H595.793V8H596.914V9.16211H596.941C597.47 8.27799 598.236 7.83594 599.238 7.83594C600.004 7.83594 600.59 8.08431 600.995 8.58105C601.401 9.07324 601.604 9.78646 601.604 10.7207V15ZM606.97 14.9316C606.705 15.0775 606.357 15.1504 605.924 15.1504C604.698 15.1504 604.085 14.4668 604.085 13.0996V8.95703H602.882V8H604.085V6.29102L605.206 5.92871V8H606.97V8.95703H605.206V12.9014C605.206 13.3708 605.286 13.7057 605.445 13.9062C605.605 14.1068 605.869 14.207 606.238 14.207C606.521 14.207 606.765 14.1296 606.97 13.9746V14.9316ZM614.277 15H613.156V10.9668C613.156 9.50846 612.614 8.7793 611.529 8.7793C610.982 8.7793 610.522 8.99121 610.148 9.41504C609.775 9.83431 609.588 10.3743 609.588 11.0352V15H608.467V4.63672H609.588V9.16211H609.615C610.153 8.27799 610.919 7.83594 611.912 7.83594C613.489 7.83594 614.277 8.78613 614.277 10.6865V15Z" fill="#6B778C"/>
<path d="M30.3364 256H25.9805V255.227H27.7207V249.243L25.9375 249.775V248.937L28.6016 248.126V255.227H30.3364V256Z" fill="#6B778C"/>
<path d="M90.5889 253.954H89.6006V256H88.7305V253.954H85.1104V253.379L88.5371 248.298H89.6006V253.239H90.5889V253.954ZM88.7305 253.239V249.909C88.7305 249.673 88.7376 249.408 88.752 249.114H88.7305C88.6803 249.243 88.5819 249.44 88.4351 249.705L86.0664 253.239H88.7305Z" fill="#6B778C"/>
<path d="M150.46 248.577L147.409 256H146.496L149.38 249.093H145.497V248.298H150.46V248.577Z" fill="#6B778C"/>
<path d="M210.372 256H206.016V255.227H207.756V249.243L205.973 249.775V248.937L208.637 248.126V255.227H210.372V256ZM213.89 256.129C213.127 256.129 212.531 255.801 212.101 255.146C211.675 254.491 211.462 253.544 211.462 252.305C211.462 250.944 211.684 249.915 212.128 249.216C212.576 248.518 213.22 248.169 214.062 248.169C215.673 248.169 216.479 249.485 216.479 252.117C216.479 253.42 216.251 254.416 215.796 255.103C215.342 255.787 214.706 256.129 213.89 256.129ZM214.013 248.916C212.914 248.916 212.364 250.031 212.364 252.262C212.364 254.346 212.903 255.388 213.981 255.388C215.044 255.388 215.576 254.328 215.576 252.208C215.576 250.013 215.055 248.916 214.013 248.916Z" fill="#6B778C"/>
<path d="M276.372 256H272.016V255.227H273.756V249.243L271.973 249.775V248.937L274.637 248.126V255.227H276.372V256ZM277.704 255.715V254.765C278.23 255.18 278.824 255.388 279.487 255.388C280.024 255.388 280.452 255.253 280.771 254.985C281.093 254.716 281.254 254.355 281.254 253.9C281.254 252.894 280.54 252.391 279.111 252.391H278.472V251.644H279.079C280.35 251.644 280.985 251.171 280.985 250.226C280.985 249.352 280.5 248.916 279.53 248.916C278.989 248.916 278.479 249.1 277.999 249.469V248.609C278.493 248.316 279.077 248.169 279.75 248.169C280.398 248.169 280.916 248.341 281.302 248.685C281.693 249.028 281.888 249.469 281.888 250.006C281.888 251.019 281.372 251.671 280.341 251.961V251.982C280.896 252.036 281.336 252.231 281.662 252.568C281.992 252.901 282.156 253.318 282.156 253.819C282.156 254.51 281.907 255.069 281.41 255.495C280.916 255.918 280.262 256.129 279.449 256.129C278.719 256.129 278.137 255.991 277.704 255.715Z" fill="#6B778C"/>
<path d="M342.372 256H338.016V255.227H339.756V249.243L337.973 249.775V248.937L340.637 248.126V255.227H342.372V256ZM348.017 248.389V249.222C347.619 249.018 347.2 248.916 346.76 248.916C346.076 248.916 345.528 249.22 345.116 249.829C344.708 250.437 344.504 251.252 344.504 252.272H344.525C344.883 251.546 345.471 251.182 346.287 251.182C346.96 251.182 347.496 251.399 347.893 251.832C348.291 252.262 348.489 252.838 348.489 253.562C348.489 254.317 348.262 254.935 347.807 255.415C347.352 255.891 346.774 256.129 346.072 256.129C345.299 256.129 344.692 255.821 344.251 255.205C343.811 254.589 343.591 253.724 343.591 252.611C343.591 251.261 343.879 250.183 344.456 249.377C345.032 248.572 345.793 248.169 346.738 248.169C347.275 248.169 347.701 248.242 348.017 248.389ZM346.094 251.929C345.639 251.929 345.27 252.083 344.987 252.391C344.704 252.699 344.563 253.062 344.563 253.481C344.563 254.007 344.703 254.457 344.982 254.829C345.265 255.201 345.639 255.388 346.104 255.388C346.549 255.388 346.907 255.227 347.179 254.904C347.451 254.578 347.587 254.167 347.587 253.669C347.587 253.125 347.456 252.699 347.195 252.391C346.933 252.083 346.566 251.929 346.094 251.929Z" fill="#6B778C"/>
<path d="M408.372 256H404.016V255.227H405.756V249.243L403.973 249.775V248.937L406.637 248.126V255.227H408.372V256ZM409.924 255.871V255.022C410.354 255.266 410.808 255.388 411.288 255.388C411.986 255.388 412.529 255.107 412.916 254.544C413.306 253.982 413.501 253.184 413.501 252.149C413.494 252.153 413.487 252.153 413.479 252.149C413.15 252.811 412.577 253.143 411.761 253.143C411.102 253.143 410.561 252.919 410.139 252.471C409.716 252.024 409.505 251.447 409.505 250.742C409.505 249.99 409.736 249.374 410.198 248.894C410.663 248.411 411.258 248.169 411.981 248.169C412.74 248.169 413.331 248.47 413.753 249.071C414.18 249.669 414.393 250.541 414.393 251.687C414.393 253.109 414.117 254.204 413.565 254.974C413.014 255.744 412.248 256.129 411.267 256.129C410.751 256.129 410.303 256.043 409.924 255.871ZM411.9 248.916C411.474 248.916 411.118 249.077 410.832 249.399C410.549 249.718 410.407 250.124 410.407 250.618C410.407 251.159 410.547 251.585 410.826 251.896C411.105 252.204 411.483 252.358 411.959 252.358C412.375 252.358 412.726 252.217 413.012 251.934C413.302 251.651 413.447 251.306 413.447 250.897C413.447 250.314 413.304 249.838 413.018 249.469C412.731 249.1 412.359 248.916 411.9 248.916Z" fill="#6B778C"/>
<path d="M474.227 256H469.586V255.216L471.831 252.965C472.404 252.392 472.812 251.916 473.056 251.537C473.303 251.153 473.426 250.745 473.426 250.312C473.426 249.868 473.299 249.524 473.045 249.281C472.791 249.037 472.429 248.916 471.96 248.916C471.272 248.916 470.614 249.209 469.983 249.796V248.873C470.585 248.403 471.285 248.169 472.083 248.169C472.771 248.169 473.312 248.355 473.706 248.728C474.099 249.1 474.296 249.599 474.296 250.226C474.296 250.72 474.16 251.204 473.888 251.676C473.616 252.145 473.127 252.729 472.422 253.427L470.644 255.184V255.205H474.227V256ZM480.156 256H475.516V255.216L477.761 252.965C478.334 252.392 478.742 251.916 478.985 251.537C479.232 251.153 479.356 250.745 479.356 250.312C479.356 249.868 479.229 249.524 478.975 249.281C478.72 249.037 478.359 248.916 477.89 248.916C477.202 248.916 476.543 249.209 475.913 249.796V248.873C476.515 248.403 477.215 248.169 478.013 248.169C478.701 248.169 479.241 248.355 479.635 248.728C480.029 249.1 480.226 249.599 480.226 250.226C480.226 250.72 480.09 251.204 479.818 251.676C479.546 252.145 479.057 252.729 478.352 253.427L476.574 255.184V255.205H480.156V256Z" fill="#6B778C"/>
<path d="M540.227 256H535.586V255.216L537.831 252.965C538.404 252.392 538.812 251.916 539.056 251.537C539.303 251.153 539.426 250.745 539.426 250.312C539.426 249.868 539.299 249.524 539.045 249.281C538.791 249.037 538.429 248.916 537.96 248.916C537.272 248.916 536.614 249.209 535.983 249.796V248.873C536.585 248.403 537.285 248.169 538.083 248.169C538.771 248.169 539.312 248.355 539.706 248.728C540.099 249.1 540.296 249.599 540.296 250.226C540.296 250.72 540.16 251.204 539.888 251.676C539.616 252.145 539.127 252.729 538.422 253.427L536.644 255.184V255.205H540.227V256ZM541.881 255.812V254.877C542.407 255.218 542.943 255.388 543.487 255.388C544.031 255.388 544.47 255.234 544.803 254.926C545.136 254.618 545.302 254.21 545.302 253.701C545.302 253.196 545.132 252.802 544.792 252.52C544.452 252.237 543.965 252.095 543.331 252.095C543.116 252.095 542.713 252.117 542.123 252.16V248.298H545.85V249.093H542.955V251.349C543.191 251.334 543.41 251.327 543.61 251.327C544.434 251.327 545.071 251.535 545.522 251.95C545.974 252.362 546.199 252.928 546.199 253.647C546.199 254.392 545.956 254.992 545.469 255.447C544.985 255.902 544.321 256.129 543.476 256.129C542.764 256.129 542.232 256.023 541.881 255.812Z" fill="#6B778C"/>
<path d="M607.227 256H602.586V255.216L604.831 252.965C605.404 252.392 605.812 251.916 606.056 251.537C606.303 251.153 606.426 250.745 606.426 250.312C606.426 249.868 606.299 249.524 606.045 249.281C605.791 249.037 605.429 248.916 604.96 248.916C604.272 248.916 603.614 249.209 602.983 249.796V248.873C603.585 248.403 604.285 248.169 605.083 248.169C605.771 248.169 606.312 248.355 606.706 248.728C607.099 249.1 607.296 249.599 607.296 250.226C607.296 250.72 607.16 251.204 606.888 251.676C606.616 252.145 606.127 252.729 605.422 253.427L603.644 255.184V255.205H607.227V256ZM610.202 251.961V251.939C609.278 251.51 608.816 250.887 608.816 250.07C608.816 249.515 609.028 249.061 609.45 248.706C609.873 248.348 610.417 248.169 611.083 248.169C611.685 248.169 612.179 248.335 612.565 248.668C612.952 249.001 613.146 249.429 613.146 249.952C613.146 250.804 612.669 251.467 611.717 251.939V251.961C612.841 252.362 613.403 253.057 613.403 254.045C613.403 254.682 613.174 255.189 612.716 255.565C612.257 255.941 611.62 256.129 610.804 256.129C610.145 256.129 609.602 255.943 609.176 255.57C608.75 255.198 608.537 254.715 608.537 254.12C608.537 253.132 609.092 252.412 610.202 251.961ZM612.243 250.06C612.243 249.705 612.132 249.426 611.91 249.222C611.688 249.018 611.386 248.916 611.002 248.916C610.644 248.916 610.34 249.023 610.089 249.238C609.842 249.449 609.719 249.719 609.719 250.049C609.719 250.718 610.136 251.223 610.97 251.563C611.819 251.213 612.243 250.711 612.243 250.06ZM610.911 252.38C609.93 252.77 609.439 253.336 609.439 254.077C609.439 254.46 609.581 254.775 609.864 255.022C610.15 255.266 610.526 255.388 610.992 255.388C611.436 255.388 611.797 255.268 612.077 255.028C612.36 254.784 612.501 254.478 612.501 254.109C612.501 253.336 611.971 252.759 610.911 252.38Z" fill="#6B778C"/>
<path d="M5.30127 240H0.945312V239.227H2.68555V233.243L0.902344 233.775V232.937L3.56641 232.126V239.227H5.30127V240ZM12.2998 240H11.043L8.06738 236.477C7.95638 236.344 7.88835 236.255 7.86328 236.208H7.8418V240H6.93945V232.298H7.8418V235.918H7.86328C7.91341 235.839 7.98145 235.751 8.06738 235.655L10.9463 232.298H12.0688L8.76562 235.993L12.2998 240Z" fill="#6B778C"/>
<path d="M5.15625 194H0.515625V193.216L2.76074 190.965C3.33366 190.392 3.74186 189.916 3.98535 189.537C4.23242 189.153 4.35596 188.745 4.35596 188.312C4.35596 187.868 4.22884 187.524 3.97461 187.281C3.72038 187.037 3.35872 186.916 2.88965 186.916C2.20215 186.916 1.54329 187.209 0.913086 187.796V186.873C1.51465 186.403 2.21468 186.169 3.01318 186.169C3.70068 186.169 4.24137 186.355 4.63525 186.728C5.02913 187.1 5.22607 187.599 5.22607 188.226C5.22607 188.72 5.09001 189.204 4.81787 189.676C4.54574 190.145 4.05697 190.729 3.35156 191.427L1.57373 193.184V193.205H5.15625V194ZM12.2998 194H11.043L8.06738 190.477C7.95638 190.344 7.88835 190.255 7.86328 190.208H7.8418V194H6.93945V186.298H7.8418V189.918H7.86328C7.91341 189.839 7.98145 189.751 8.06738 189.655L10.9463 186.298H12.0688L8.76562 189.993L12.2998 194Z" fill="#6B778C"/>
<path d="M0.703613 146.715V145.765C1.22998 146.18 1.82438 146.388 2.48682 146.388C3.02393 146.388 3.45182 146.253 3.77051 145.985C4.09277 145.716 4.25391 145.355 4.25391 144.9C4.25391 143.894 3.53955 143.391 2.11084 143.391H1.47168V142.644H2.07861C3.34977 142.644 3.98535 142.171 3.98535 141.226C3.98535 140.352 3.50016 139.916 2.52979 139.916C1.9891 139.916 1.47884 140.1 0.999023 140.469V139.609C1.49316 139.316 2.07682 139.169 2.75 139.169C3.39811 139.169 3.91553 139.341 4.30225 139.685C4.69255 140.028 4.8877 140.469 4.8877 141.006C4.8877 142.019 4.37207 142.671 3.34082 142.961V142.982C3.89583 143.036 4.33626 143.231 4.66211 143.568C4.99154 143.901 5.15625 144.318 5.15625 144.819C5.15625 145.51 4.90739 146.069 4.40967 146.495C3.91553 146.918 3.26204 147.129 2.44922 147.129C1.71875 147.129 1.13688 146.991 0.703613 146.715ZM12.2998 147H11.043L8.06738 143.477C7.95638 143.344 7.88835 143.255 7.86328 143.208H7.8418V147H6.93945V139.298H7.8418V142.918H7.86328C7.91341 142.839 7.98145 142.751 8.06738 142.655L10.9463 139.298H12.0688L8.76562 142.993L12.2998 147Z" fill="#6B778C"/>
<path d="M5.55371 99.9536H4.56543V102H3.69531V99.9536H0.0751953V99.3789L3.50195 94.2979H4.56543V99.2393H5.55371V99.9536ZM3.69531 99.2393V95.9092C3.69531 95.6729 3.70247 95.4079 3.7168 95.1143H3.69531C3.64518 95.2432 3.54671 95.4401 3.3999 95.7051L1.03125 99.2393H3.69531ZM12.2998 102H11.043L8.06738 98.4766C7.95638 98.3441 7.88835 98.2546 7.86328 98.208H7.8418V102H6.93945V94.2979H7.8418V97.918H7.86328C7.91341 97.8392 7.98145 97.7515 8.06738 97.6548L10.9463 94.2979H12.0688L8.76562 97.9932L12.2998 102Z" fill="#6B778C"/>
<path d="M0.880859 56.812V55.8774C1.40723 56.2176 1.94255 56.3877 2.48682 56.3877C3.03109 56.3877 3.46973 56.2337 3.80273 55.9258C4.13574 55.6178 4.30225 55.2096 4.30225 54.7012C4.30225 54.1963 4.13216 53.8024 3.79199 53.5195C3.45182 53.2367 2.96484 53.0952 2.33105 53.0952C2.11621 53.0952 1.71338 53.1167 1.12256 53.1597V49.2979H4.8501V50.0928H1.95508V52.3486C2.19141 52.3343 2.40983 52.3271 2.61035 52.3271C3.43392 52.3271 4.07129 52.5348 4.52246 52.9502C4.97363 53.362 5.19922 53.9277 5.19922 54.6475C5.19922 55.3923 4.95573 55.992 4.46875 56.4468C3.98535 56.9015 3.32113 57.1289 2.47607 57.1289C1.76351 57.1289 1.23177 57.0233 0.880859 56.812ZM12.2998 57H11.043L8.06738 53.4766C7.95638 53.3441 7.88835 53.2546 7.86328 53.208H7.8418V57H6.93945V49.2979H7.8418V52.918H7.86328C7.91341 52.8392 7.98145 52.7515 8.06738 52.6548L10.9463 49.2979H12.0688L8.76562 52.9932L12.2998 57Z" fill="#6B778C"/>
<line x1="23" y1="235.5" x2="615" y2="235.5" stroke="#F0F0F0"/>
<line x1="23" y1="189.5" x2="615" y2="189.5" stroke="#F0F0F0"/>
<line x1="23" y1="143.5" x2="615" y2="143.5" stroke="#F0F0F0"/>
<line x1="23" y1="97.5" x2="615" y2="97.5" stroke="#F0F0F0"/>
<line x1="23" y1="51.5" x2="615" y2="51.5" stroke="#F0F0F0"/>
<path fill-rule="evenodd" clip-rule="evenodd" d="M615 122.722C614.13 122.527 613.171 122.367 612.087 122.185C608.846 121.643 604.484 120.913 598 118.5C591.478 116.073 584.795 105.624 578.133 95.2079C573.049 87.2585 567.978 79.3287 563 75.0002C547.388 61.4244 533.078 71.4644 517 87.5002C509.815 94.6666 501.159 96.7411 493.383 98.6045C486.235 100.318 479.832 101.852 476 107C469.658 115.521 465.001 128.09 460.393 140.526C453.12 160.157 445.968 179.459 432.5 182C414.033 185.485 405.521 171.729 396.812 157.655C393.024 151.533 389.198 145.35 384.5 140.5C369 124.5 352.5 132 339 145.5C307 175.5 292.5 162.5 273 137.5C260.45 121.411 254.528 121.242 247.768 121.05C244.025 120.944 240.025 120.83 234.5 118C225.044 113.157 219.099 100.441 213.327 88.0967C206.586 73.6796 200.083 59.7695 188.5 59.5002C170.351 59.0781 161.11 101.765 155.361 128.315C154.3 133.218 153.357 137.571 152.5 141C152.297 141.811 152.094 142.627 151.89 143.447C146.548 164.886 140.503 189.148 127.5 193C114 197 103 187.5 92 176C81 164.5 69 159 56 164C45.6 168 29.3333 191.667 23 203V235.5H615V122.722Z" fill="url(#paint0_linear_7_294)"/>
<path d="M23 203C29.3333 191.667 45.6 168 56 164C69 159 81 164.5 92 176C103 187.5 114 197 127.5 193C141 189 147 163 152.5 141C158 119 167 59.0002 188.5 59.5002C210 60.0002 214 107.5 234.5 118C250 125.939 253.5 112.5 273 137.5C292.5 162.5 307 175.5 339 145.5C352.5 132 369 124.5 384.5 140.5C400 156.5 406 187 432.5 182C454.5 177.849 459.646 128.971 476 107C484 96.2521 503.21 101.255 517 87.5002C533.078 71.4644 547.388 61.4244 563 75.0002C574.5 85.0002 586.5 114.221 598 118.5C606.246 121.568 611.559 121.8 615 122.5" stroke="#824AED" stroke-width="1.5"/>
<circle cx="29" cy="195" r="4" fill="#824AED" stroke="white" stroke-width="2"/>
<circle cx="88" cy="173" r="4" fill="#824AED" stroke="white" stroke-width="2"/>
<circle cx="148" cy="161" r="4" fill="#824AED" stroke="white" stroke-width="2"/>
<circle cx="211" cy="82" r="4" fill="#824AED" stroke="white" stroke-width="2"/>
<circle cx="283" cy="147" r="4" fill="#824AED" stroke="white" stroke-width="2"/>
<circle cx="343" cy="144" r="4" fill="#824AED" stroke="white" stroke-width="2"/>
<circle cx="409" cy="175" r="4" fill="#824AED" stroke="white" stroke-width="2"/>
<circle cx="476" cy="105" r="4" fill="#824AED" stroke="white" stroke-width="2"/>
<circle cx="542" cy="69" r="4" fill="#824AED" stroke="white" stroke-width="2"/>
<circle cx="608" cy="122" r="4" fill="#824AED" stroke="white" stroke-width="2"/>
<path fill-rule="evenodd" clip-rule="evenodd" d="M23.5 222C23.5 222 43 189.539 59.5 186.5C78 185.5 86.5 177.5 94 161.5C101.5 145.5 110.5 130.5 131 129.5C140.527 129.035 147.354 120.903 154.594 112.281C162.931 102.349 171.816 91.7676 186 91.5C200.254 91.231 206.841 104.994 213.776 119.484C219.733 131.932 225.947 144.917 237.5 150C254.929 156.074 266.918 149.037 278.403 142.297C288.665 136.275 298.524 130.489 311.5 134.5C323.053 138.071 328.805 155.893 334.816 174.518C341.033 193.78 347.527 213.899 361 220C374.419 225.064 385.018 220.255 396.626 214.988C407.942 209.854 420.217 204.285 437 207C446.01 208.457 451.797 212.226 457.548 215.97C466.477 221.784 475.319 227.541 496 224.5C507.072 222.872 513.14 216.486 519.327 209.976C526.831 202.08 534.509 194 551.5 194C566.143 194 572.642 185.522 579.218 176.943C586.563 167.361 594.005 157.653 613 159.5C613.686 159.567 614.352 159.654 615 159.76V235H23.5V222Z" fill="url(#paint1_linear_7_294)"/>
<path d="M23.5 222C23.5 222 43 189.539 59.5 186.5C78 185.5 86.5 177.5 94 161.5C101.5 145.5 110.5 130.5 131 129.5C151.5 128.5 159.5 92 186 91.5C212.5 91 212.5 139 237.5 150C270.5 161.5 284 126 311.5 134.5C335 141.764 334.5 208 361 220C387.5 230 403 201.5 437 207C460 210.721 462 229.5 496 224.5C520.5 220.897 520.5 194 551.5 194C582.5 194 577 156 613 159.5C613.686 159.567 614.352 159.654 615 159.76" stroke="#3AAFE4" stroke-width="1.5"/>
<circle cx="608" cy="160" r="3.5" fill="#3AAFE4" stroke="white"/>
<circle cx="542" cy="195" r="3.5" fill="#3AAFE4" stroke="white"/>
<circle cx="476" cy="225" r="3.5" fill="#3AAFE4" stroke="white"/>
<circle cx="409" cy="209" r="3.5" fill="#3AAFE4" stroke="white"/>
<circle cx="343" cy="197" r="3.5" fill="#3AAFE4" stroke="white"/>
<circle cx="277" cy="141" r="3.5" fill="#3AAFE4" stroke="white"/>
<circle cx="211" cy="113" r="3.5" fill="#3AAFE4" stroke="white"/>
<circle cx="148" cy="121" r="3.5" fill="#3AAFE4" stroke="white"/>
<path d="M88 174.5C89.933 174.5 91.5 172.933 91.5 171C91.5 169.067 89.933 167.5 88 167.5C86.067 167.5 84.5 169.067 84.5 171C84.5 172.933 86.067 174.5 88 174.5Z" fill="#3AAFE4" stroke="white"/>
<circle cx="29" cy="214" r="3.5" fill="#3AAFE4" stroke="white"/>
<defs>
<linearGradient id="paint0_linear_7_294" x1="347" y1="59.4971" x2="347" y2="235.5" gradientUnits="userSpaceOnUse">
<stop stop-color="#824AED" stop-opacity="0.19"/>
<stop offset="1" stop-color="#824AED" stop-opacity="0.01"/>
</linearGradient>
<linearGradient id="paint1_linear_7_294" x1="347" y1="91.4961" x2="347" y2="235" gradientUnits="userSpaceOnUse">
<stop stop-color="#3AAFE4" stop-opacity="0.26"/>
<stop offset="1" stop-color="#3AAFE4" stop-opacity="0.01"/>
</linearGradient>
</defs>
</svg>
