<svg width="248" height="201" viewBox="0 0 248 201" fill="none" xmlns="http://www.w3.org/2000/svg">
<path d="M47.3486 190.94H48.7999C48.7999 187.867 48.7999 180.068 48.9549 162.181C49.2085 129.769 49.7158 127.798 49.7158 127.798L46.2636 142.764C44.0655 159.325 46.8836 175.995 47.3486 190.94Z" fill="#CF8B61"/>
<path d="M39.8801 132.864C32.1184 125.195 16.9687 124.168 1.48848 123.521C-4.58432 123.269 18.4492 134.941 29.9983 143.68C38.9243 150.464 44.4293 152.067 47.4046 159.383C47.7496 149.889 46.5638 139.475 39.8801 132.864Z" fill="#70DCAD"/>
<path d="M49.4594 120.9C54.7201 110.91 67.9509 101.496 82.7987 97.9023C88.62 96.5008 69.2876 116.343 61.9571 129.15C56.2509 139.097 48.6832 150.768 47.5118 159.162C45.7366 142.568 44.213 130.889 49.4594 120.9Z" fill="#4DC390"/>
<path d="M48.8199 200.464C46.3312 200.459 43.9383 199.505 42.1298 197.795C40.3213 196.085 39.2337 193.75 39.089 191.265L38.1979 182.454H59.3844L58.4932 191.265C58.3492 193.74 57.2697 196.067 55.4734 197.775C53.6772 199.484 51.2986 200.445 48.8199 200.464Z" fill="#9F5440"/>
<path d="M60.7714 185.846H36.8324L36.1425 176.029H61.4542L60.7714 185.846Z" fill="#B76C58"/>
<path d="M93.739 22.2871C93.739 22.2871 90.0674 21.4673 89.5478 16.7334C89.0687 12.3402 91.0257 11.4684 91.0257 11.4684C91.0257 11.4684 88.526 6.97703 92.6999 4.39648C96.8738 1.81594 103.265 5.25667 105.724 4.09051C108.183 2.92436 110.92 3.57672 110.14 7.04053C109.361 10.5043 105.712 11.4049 105.712 11.4049L97.2895 9.92704C97.2895 9.92704 100.921 19.3948 98.7674 21.1787C96.614 22.9625 93.739 22.2871 93.739 22.2871Z" fill="#263238"/>
<path d="M108.414 8.33368C108.414 8.33368 110.233 15.3999 108.414 16.618C106.596 17.8361 106.203 9.3786 106.203 9.3786L108.414 8.33368Z" fill="#263238"/>
<path d="M95.015 76.773L93.2081 80.6409L90.0041 80.179C86.9848 80.664 85.7262 78.9494 85.7262 78.9494L83.8269 77.2175C73.2103 67.2763 71.4207 62.2076 72.3328 58.2069C73.2969 53.981 79.6934 41.5517 81.6216 38.6594C83.5498 35.7671 85.0046 34.9762 85.0046 34.9762C88.5031 33.4695 91.1529 34.5548 92.371 38.2957C93.3582 41.3208 91.1182 44.4786 89.3921 46.759C87.2688 49.5505 85.3066 52.461 83.5152 55.4763C82.9379 56.4692 82.3606 57.4795 81.8179 58.4956C81.5812 58.9343 80.2765 60.8394 80.4208 61.2262C81.3099 63.7028 85.7782 70.7344 87.3485 73.1706L87.8911 74.0135C93.6872 74.8448 95.015 76.773 95.015 76.773Z" fill="#263238"/>
<path d="M155.32 35.923L151.954 37.8454C151.954 37.8454 151.227 39.2771 150.026 41.2804C147.296 45.8468 142.129 53.4037 137.562 53.9117C131.564 54.414 125.26 51.6372 118.927 47.3882C112.594 43.1393 114.828 33.4175 114.828 33.4175C114.828 33.4175 118.609 34.4797 124.463 38.8095C130.317 43.1393 135.282 45.7833 136.725 46.3433C136.725 46.3433 141.69 44.7442 147.065 38.4978L148.589 33.6022L153.64 31.8703L155.32 35.923Z" fill="#263238"/>
<path d="M84.791 49.8417C85.0104 50.1534 90.7026 78.0949 90.7026 78.0949H117.293C117.293 78.0949 117.53 61.0125 117.969 56.9598C118.407 52.9072 121.098 36.1769 114.828 33.4174C114.828 33.4174 108.443 31.8991 103.732 31.8356C100.896 31.7972 98.0634 32.0389 95.2748 32.5572C95.2748 32.5572 87.1175 32.9902 84.9988 34.9646C82.8801 36.939 84.791 49.8417 84.791 49.8417Z" fill="#263238"/>
<path d="M117.293 77.7197C117.293 77.7197 116.843 118.021 115.636 127.662C114.43 137.303 111.301 178.967 111.301 178.967L103.403 177.068C103.403 177.068 102.826 146.742 102 131.68C101.175 116.618 101.36 98.7739 101.36 98.7739C101.36 98.7739 95.5866 136.299 93.364 139.913C91.1413 143.526 82.1008 164.413 76.27 174.851L69.8389 169.228C69.8389 169.228 80.3111 135.895 82.1008 130.272C83.8904 124.649 85.4491 82.9327 90.7026 78.0949L117.293 77.7197Z" fill="#407BFF"/>
<path d="M75.2943 173.627L73.6894 176.081L71.5246 179.394L67.1024 177.097L68.9151 173.437L70.266 170.723L75.2943 173.627Z" fill="#CE7A63"/>
<path d="M155.32 35.923L151.954 37.8454C151.954 37.8454 151.227 39.2771 150.026 41.2804L147.065 38.4978L148.589 33.6022L153.64 31.8703L155.32 35.923Z" fill="#CE7A63"/>
<path opacity="0.3" d="M117.287 77.7197C117.287 77.7197 116.843 118.021 115.636 127.656C114.43 137.292 111.301 178.967 111.301 178.967L103.501 177.657C103.501 177.657 102.78 146.742 101.983 131.674C101.758 127.379 101.36 124.112 101.273 121.6C101.186 119.089 101.204 114.673 101.273 110.349C101.348 104.091 101.487 98.0061 101.487 98.0061L101.313 99.1145C101.313 99.2762 101.261 99.4551 101.227 99.6457L101.192 99.8766C99.9625 107.647 95.2748 136.76 93.3697 139.889C91.1356 143.526 82.1008 164.413 76.27 174.851L69.8389 169.228C69.8389 169.228 80.288 135.889 82.095 130.272C83.902 124.654 85.4434 82.9327 90.6968 78.0892L117.287 77.7197Z" fill="black"/>
<path opacity="0.2" d="M101.29 99.1088C101.29 99.2704 101.238 99.4494 101.204 99.6399L101.29 99.1088Z" fill="black"/>
<path opacity="0.2" d="M102.555 91.0208C102.555 91.0208 102.404 102.567 101.25 110.343C101.325 104.085 101.463 98.0004 101.463 98.0004L102.555 91.0208Z" fill="black"/>
<path d="M104.835 30.733C105.609 31.3371 106.491 31.7896 107.433 32.0666C107.433 32.0666 106.088 33.683 101.775 33.3655C100.095 33.2385 97.9593 34.1564 95.2806 32.5573C95.2806 32.5573 96.4005 26.1608 95.9098 22.3737C95.9098 22.3737 91.4819 20.4743 92.5384 17.5936C93.4967 14.9727 96.4814 17.9804 97.024 18.5519C96.4929 17.8765 93.3062 13.6218 95.627 10.1406C96.37 9.02926 97.3484 8.09483 98.4926 7.40348C99.6369 6.71213 100.919 6.28076 102.249 6.13992L105.909 7.12134L107.381 10.5852C107.381 10.5852 109.349 13.2523 109.488 18.5923C109.627 23.9324 106.538 25.8259 104.292 26.461C104.292 26.461 104.229 27.0383 104.229 27.8176C104.2 28.8626 104.298 30.2423 104.835 30.733Z" fill="#CE7A63"/>
<path d="M105.995 19.0138L105.418 14.7014L107.849 18.0959C107.618 18.3671 107.335 18.5884 107.017 18.7463C106.698 18.9041 106.351 18.9952 105.995 19.0138Z" fill="#BA4D3C"/>
<path d="M101.775 19.2852C102.112 19.7225 102.571 20.0514 103.093 20.231C103.615 20.4105 104.179 20.433 104.714 20.2954" stroke="#263238" stroke-linecap="round" stroke-linejoin="round"/>
<path d="M100.672 13.3215C100.672 13.3215 101.365 11.809 102.785 12.0399" stroke="#263238" stroke-linecap="round" stroke-linejoin="round"/>
<path d="M106.913 11.4742C107.336 11.4189 107.766 11.465 108.167 11.6085C108.569 11.7521 108.93 11.989 109.222 12.2997" stroke="#263238" stroke-linecap="round" stroke-linejoin="round"/>
<path d="M103.259 15.2845C103.259 15.7059 103.045 16.0465 102.786 16.0465C102.526 16.0465 102.312 15.7059 102.312 15.2845C102.312 14.863 102.526 14.5282 102.786 14.5282C103.045 14.5282 103.259 14.8688 103.259 15.2845Z" fill="#263238"/>
<path d="M108.062 14.9727C108.062 15.3883 107.848 15.7289 107.589 15.7289C107.329 15.7289 107.115 15.3883 107.115 14.9727C107.115 14.557 107.329 14.2106 107.589 14.2106C107.848 14.2106 108.062 14.5512 108.062 14.9727Z" fill="#263238"/>
<path d="M100.066 35.3284L103.773 34.7626L104.679 38.3477L102.953 41.5575H101.96L100.066 38.6767V35.3284Z" fill="#407BFF"/>
<path d="M101.96 41.5574L100.066 58.4955L103.53 61.8323L106.03 58.4204L102.953 41.5574H101.96Z" fill="#407BFF"/>
<path opacity="0.3" d="M100.066 35.3284L103.773 34.7626L104.679 38.3477L102.953 41.5575H101.96L100.066 38.6767V35.3284Z" fill="black"/>
<path opacity="0.3" d="M101.96 41.5574L100.066 58.4955L103.53 61.8323L106.03 58.4204L102.953 41.5574H101.96Z" fill="black"/>
<path d="M101.775 33.3655L103.651 38.3073C103.651 38.3073 108.501 35.8884 109.211 31.8357L105.747 30.6465C104.542 31.7152 103.207 32.6286 101.775 33.3655Z" fill="white"/>
<path d="M95.6097 30.3231C95.6097 30.3231 98.9638 32.0897 101.775 33.3655L100.673 38.3072C100.673 38.3072 95.119 34.982 93.2543 32.3841L95.6097 30.3231Z" fill="white"/>
<path opacity="0.2" d="M104.269 26.4436C104.269 26.4436 104.206 27.0209 104.206 27.8003C103.251 27.5647 102.329 27.2098 101.463 26.7438C102.409 26.8722 103.372 26.7692 104.269 26.4436Z" fill="black"/>
<path d="M97.0528 18.5519C97.6806 16.0492 97.4572 13.4086 96.4178 11.047C96.4178 11.047 103.005 12.9348 103.022 6.93658C103.022 6.93658 94.2356 8.33943 93.7853 11.4626C93.335 14.5858 96.3023 17.7033 97.0528 18.5519Z" fill="#263238"/>
<path d="M102.924 7.81981C102.924 7.81981 105.441 11.3933 107.6 10.6544V5.45865H100.095L96.1292 7.82559L98.8771 10.6544L100.921 8.97442L102.924 7.81981Z" fill="#263238"/>
<path d="M110.775 185.462L105.141 185.173L105.002 180.901L104.898 177.784L109.459 177.328L110.36 177.368L110.556 181.224L110.775 185.462Z" fill="#CE7A63"/>
<path opacity="0.2" d="M110.556 181.224L105.002 180.901L104.898 177.784L109.459 177.328L110.36 177.368L110.556 181.224Z" fill="black"/>
<path d="M101.839 179.833L112.675 179.567L113.287 176.034H102.093L101.839 179.833Z" fill="#263238"/>
<path d="M111.988 185.698C111.988 185.698 113.875 180.133 115.348 180.687C116.82 181.242 111.988 185.698 111.988 185.698Z" stroke="#407BFF" stroke-miterlimit="10"/>
<path d="M112.311 185.698C112.311 185.698 115.163 182.985 116.312 184.042C117.46 185.098 112.311 185.698 112.311 185.698Z" stroke="#407BFF" stroke-miterlimit="10"/>
<path opacity="0.2" d="M75.2945 173.627L73.6896 176.081L68.9153 173.436L70.2662 170.723L75.2945 173.627Z" fill="black"/>
<path d="M67.8528 171.41L76.1313 175.792L78.0826 173.39L69.6482 168.651L67.8528 171.41Z" fill="#263238"/>
<path d="M73.1237 180.866C73.1237 180.866 75.4675 177.934 76.42 178.626C77.3726 179.319 73.1237 180.866 73.1237 180.866Z" stroke="#407BFF" stroke-miterlimit="10"/>
<path d="M73.5508 180.866C73.5508 180.866 77.5919 179.914 77.7651 181.224C77.9383 182.535 73.5508 180.866 73.5508 180.866Z" stroke="#407BFF" stroke-miterlimit="10"/>
<path d="M72.6329 177.737L68.2858 175.295C67.9824 175.127 67.6246 175.085 67.2905 175.179C66.9565 175.273 66.673 175.496 66.502 175.798L64.5449 179.261C64.3747 179.565 64.332 179.925 64.4262 180.26C64.5203 180.596 64.7436 180.88 65.0472 181.051L77.3841 187.979C77.6882 188.149 78.0473 188.192 78.3828 188.098C78.7182 188.003 79.0027 187.78 79.1738 187.476C79.3258 187.205 79.3767 186.889 79.3175 186.583C79.2583 186.278 79.0929 186.003 78.8505 185.808C77.2571 184.532 73.9896 181.6 73.268 178.563C73.2245 178.389 73.1457 178.226 73.0364 178.084C72.9272 177.942 72.7898 177.824 72.6329 177.737Z" fill="#263238"/>
<path d="M110.256 183.297H104.483C104.08 183.298 103.693 183.46 103.409 183.745C103.124 184.031 102.964 184.418 102.964 184.821V189.439C102.964 189.842 103.124 190.228 103.409 190.513C103.694 190.798 104.08 190.958 104.483 190.958H120.855C121.055 190.958 121.253 190.92 121.438 190.844C121.623 190.768 121.791 190.656 121.932 190.515C122.074 190.374 122.186 190.206 122.263 190.022C122.34 189.837 122.379 189.639 122.379 189.439C122.379 189.079 122.251 188.731 122.019 188.457C121.786 188.182 121.464 187.998 121.109 187.938C118.771 187.552 113.818 186.443 111.364 183.793C111.223 183.639 111.052 183.516 110.861 183.43C110.671 183.345 110.465 183.3 110.256 183.297Z" fill="#263238"/>
<path d="M95.015 76.7729L93.2081 80.6408L90.004 80.179C86.9848 80.6639 85.7262 78.9493 85.7262 78.9493L83.8269 77.2174L87.3542 73.1763L87.8969 74.0192C93.6872 74.8447 95.015 76.7729 95.015 76.7729Z" fill="#CE7A63"/>
<path d="M147.065 38.2437L145.945 39.7332L149.224 42.5966L150.188 41.2803L147.065 38.2437Z" fill="white"/>
<path d="M83.6825 77.3791L87.4639 72.9569L86.188 71.3347L82.2393 76.0859L83.6825 77.3791Z" fill="white"/>
<path d="M156.278 6.75249C155.888 7.91264 155.761 9.14517 155.907 10.3605C156.053 11.5758 156.468 12.7434 157.121 13.7783C159.361 17.1728 158.853 5.95004 158.853 5.95004L156.278 6.75249Z" fill="#263238"/>
<path d="M160.868 32.2058C160.868 32.2058 147.013 51.6031 144.305 50.7891C141.598 49.9751 135.357 37.8749 135.357 37.8749L134.993 33.089L130.906 27.4603L125.71 31.5592L128.227 36.2411C128.227 36.2411 128.978 38.6715 131.195 39.3528C131.195 39.3528 136.292 55.0034 142.741 57.9419C149.189 60.8804 158.137 42.2335 158.137 42.2335L160.868 32.2058Z" fill="#FFB573"/>
<path d="M190.53 173.558L183.377 176.277C174.14 155.991 166.635 96.829 166.635 96.829C166.635 96.829 166.416 98.4859 166.087 101.153C165.013 109.986 162.738 129.839 163.2 136.946C163.933 148.902 161.821 178.448 161.821 178.448L153.161 179.476C153.161 179.476 153.455 150.27 152.22 134.088C150.985 117.906 154.766 76.3867 154.766 76.3867L178.649 75.2899C182.748 80.0006 183.77 137.979 184.797 143.308C185.825 148.636 190.53 173.558 190.53 173.558Z" fill="#263238"/>
<path d="M152.41 35.0981C152.469 34.7804 152.59 34.4777 152.767 34.2079C152.945 33.9382 153.175 33.7069 153.444 33.5278C155.378 32.2347 160.337 29.0133 161.67 28.9094C163.344 28.7766 172.096 26.7214 175.566 28.9094C179.036 31.0974 181.229 37.5285 181.229 37.5285C181.229 37.5285 180.975 67.2539 179.428 76.9064L154.725 76.3926C154.725 76.3926 150.84 43.8096 152.41 35.0981Z" fill="#407BFF"/>
<path d="M180.075 45.8936L183.931 52.9714C183.931 52.9714 184.445 68.928 183.163 73.0442L181.229 76.9063V83.1008L185.848 83.7416L187.135 78.8518C187.135 78.8518 187.903 75.2495 187.135 73.7081C187.135 73.7081 192.539 61.3538 190.599 50.6737C190.599 50.6737 180.848 29.1749 174.868 28.5803C168.887 27.9857 180.075 45.8936 180.075 45.8936Z" fill="#FFB573"/>
<path d="M172.2 28.6092C172.2 28.6092 168.384 32.2924 164.903 32.1885C161.422 32.0846 162.375 29.1173 162.375 29.1173C164.164 28.7824 164.747 26.9928 164.915 25.4571C164.997 24.6896 164.997 23.9155 164.915 23.1479C164.915 23.1479 160.764 23.1479 158.432 18.0792C156.099 13.0105 158.432 6.33111 158.432 6.33111C158.432 6.33111 167.247 4.10272 171.196 5.21691C175.145 6.33111 172.01 16.2549 172.01 16.2549C170.982 21.8259 172.2 28.6092 172.2 28.6092Z" fill="#FFB573"/>
<path d="M164.464 11.6134C164.464 12.0117 164.245 12.335 163.98 12.335C163.714 12.335 163.5 12.0117 163.5 11.6134C163.5 11.2151 163.714 10.8918 163.98 10.8918C164.245 10.8918 164.464 11.2151 164.464 11.6134Z" fill="#263238"/>
<path d="M159.546 12.0926C159.546 12.4909 159.332 12.8142 159.067 12.8142C158.801 12.8142 158.582 12.4909 158.582 12.0926C158.582 11.6942 158.801 11.3709 159.067 11.3709C159.332 11.3709 159.546 11.6769 159.546 12.0926Z" fill="#263238"/>
<path d="M161.174 12.439V16.3127C160.856 16.4116 160.515 16.4139 160.196 16.3193C159.876 16.2248 159.592 16.0377 159.378 15.7816L161.174 12.439Z" fill="#ED893E"/>
<path d="M162.819 16.9881C162.819 16.9881 164.875 16.9881 165.625 15.2966" stroke="#263238" stroke-linecap="round" stroke-linejoin="round"/>
<path d="M163.5 8.83073C163.5 8.83073 165.29 8.6864 165.81 9.80059" stroke="#263238" stroke-linecap="round" stroke-linejoin="round"/>
<path d="M157.387 10.1932C157.528 9.84136 157.756 9.53117 158.05 9.29182C158.344 9.05246 158.694 8.89181 159.067 8.82498" stroke="#263238" stroke-linecap="round" stroke-linejoin="round"/>
<path opacity="0.2" d="M168.061 22.5302C167.247 23.7292 166.174 24.7295 164.921 25.4571C165.003 24.6895 165.003 23.9154 164.921 23.1479C165.998 23.1499 167.065 22.94 168.061 22.5302Z" fill="black"/>
<path d="M163.876 32.3098L165.971 32.1135L166.56 36.4894L165.469 38.4927H164.222L163.056 36.322L163.876 32.3098Z" fill="#263238"/>
<path d="M171.946 26.8484C169.858 28.9466 167.487 30.7438 164.903 32.1885L166.15 35.2828C166.15 35.2828 171.381 34.3822 173.62 28.1762L171.946 26.8484Z" fill="white"/>
<path d="M164.903 32.1884L163.5 35.2828C163.5 35.2828 161.376 33.1872 160.868 29.1403L163.5 27.4603C163.5 27.4603 163.599 30.4912 164.903 32.1884Z" fill="white"/>
<path d="M164.314 37.338L162.888 55.8406L165.284 58.7502L167.495 55.6616L165.336 37.338H164.314Z" fill="#263238"/>
<path d="M173.788 13.4781C173.788 13.4781 168.731 14.0901 167.894 6.7641C167.894 6.7641 158.986 9.42546 155.77 6.69482C152.555 3.96418 155.164 0.413767 155.164 0.413767C155.44 1.10459 155.77 1.7725 156.151 2.41124V0.102027C156.692 0.812249 157.289 1.47825 157.935 2.09372C160.53 2.51125 163.188 1.99799 165.44 0.644689C169.302 -1.66452 174.215 2.71721 173.309 6.09443C173.338 6.11175 177.691 9.50629 173.788 13.4781Z" fill="#263238"/>
<path d="M170.318 13.6859C170.318 13.6859 171.681 8.8539 173.921 10.5569C176.161 12.26 172.968 17.017 171.409 16.7456C169.851 16.4743 170.318 13.6859 170.318 13.6859Z" fill="#FFB573"/>
<path d="M131.039 40.3804L135.911 37.6902C135.911 37.6902 141.147 47.8045 144.184 49.0746C144.184 49.0746 150.355 42.8455 152.387 35.0461L155.153 48.047C155.153 48.047 150.367 58.1555 144.317 58.2999C138.267 58.4442 133.308 46.9328 131.039 40.3804Z" fill="#407BFF"/>
<path d="M176.611 41.8698L183.954 53.6583L182.73 71.9184L188.255 72.998C188.255 72.998 192.51 60.2973 190.622 50.6852C189.254 43.7056 184.93 34.8556 179.913 30.6239C178.13 29.1623 175.924 28.3141 173.621 28.205C173.621 28.205 172.264 31.334 172.333 33.9781C172.402 36.6221 176.611 41.8698 176.611 41.8698Z" fill="#407BFF"/>
<path opacity="0.2" d="M181.033 48.9591L176.611 41.8699C176.992 42.4818 181.033 54.7322 181.033 54.7322V48.9591Z" fill="black"/>
<path opacity="0.2" d="M166.635 96.8291C166.635 96.8291 166.416 98.4859 166.087 101.153L164.932 87.1131L166.635 96.8291Z" fill="black"/>
<path d="M187.557 182.304L192.036 180.22L190.749 176.705L189.808 174.136L185.952 175.261L185.236 175.585L186.338 178.789L187.557 182.304Z" fill="#FFB573"/>
<path opacity="0.2" d="M186.338 178.789L190.749 176.705L189.808 174.136L185.952 175.261L185.236 175.585L186.338 178.789Z" fill="black"/>
<path d="M186.644 182.893C186.644 182.893 183.285 178.991 182.268 179.92C181.252 180.85 186.644 182.893 186.644 182.893Z" stroke="#407BFF" stroke-miterlimit="10"/>
<path d="M186.385 182.974C186.385 182.974 183.175 181.704 182.586 182.94C181.997 184.175 186.385 182.974 186.385 182.974Z" stroke="#407BFF" stroke-miterlimit="10"/>
<path d="M187.268 180.376L191.95 178.483C192.277 178.351 192.643 178.355 192.967 178.492C193.292 178.629 193.549 178.89 193.682 179.216L195.194 182.974C195.26 183.136 195.293 183.309 195.292 183.484C195.291 183.659 195.255 183.831 195.187 183.992C195.119 184.153 195.02 184.299 194.895 184.422C194.771 184.544 194.623 184.641 194.461 184.706L181.154 190.081C180.992 190.147 180.818 190.181 180.643 190.18C180.468 190.178 180.295 190.142 180.134 190.074C179.973 190.005 179.827 189.905 179.705 189.779C179.582 189.653 179.487 189.505 179.422 189.342C179.303 189.05 179.292 188.726 179.391 188.426C179.489 188.127 179.69 187.872 179.959 187.708C181.726 186.628 185.397 184.1 186.517 181.144C186.581 180.97 186.681 180.812 186.81 180.679C186.939 180.547 187.096 180.444 187.268 180.376Z" fill="#263238"/>
<path d="M154.824 186.721L159.76 186.6L159.979 182.859L160.141 180.128L156.157 179.626L155.372 179.637L155.106 183.015L154.824 186.721Z" fill="#FFB573"/>
<path opacity="0.2" d="M155.106 183.015L159.979 182.859L160.141 180.128L156.157 179.626L155.372 179.637L155.106 183.015Z" fill="black"/>
<path d="M153.75 186.9C153.75 186.9 152.226 181.981 150.927 182.432C149.628 182.882 153.75 186.9 153.75 186.9Z" stroke="#407BFF" stroke-miterlimit="10"/>
<path d="M153.467 186.894C153.467 186.894 151.031 184.446 150.003 185.347C148.976 186.247 153.467 186.894 153.467 186.894Z" stroke="#407BFF" stroke-miterlimit="10"/>
<path d="M155.326 184.839L160.377 184.972C160.552 184.976 160.725 185.015 160.885 185.086C161.045 185.157 161.19 185.26 161.31 185.387C161.431 185.514 161.525 185.663 161.588 185.827C161.651 185.99 161.681 186.165 161.676 186.34L161.567 190.381C161.562 190.556 161.523 190.728 161.452 190.888C161.381 191.048 161.278 191.192 161.151 191.312C161.024 191.432 160.874 191.526 160.711 191.588C160.547 191.65 160.373 191.679 160.198 191.674L145.852 191.299C145.677 191.294 145.505 191.255 145.345 191.184C145.186 191.113 145.042 191.011 144.921 190.884C144.801 190.756 144.707 190.607 144.645 190.443C144.583 190.28 144.554 190.105 144.559 189.931C144.569 189.615 144.69 189.313 144.901 189.078C145.113 188.843 145.401 188.691 145.714 188.649C147.769 188.36 152.139 187.494 154.345 185.237C154.472 185.108 154.625 185.005 154.794 184.937C154.963 184.868 155.144 184.835 155.326 184.839Z" fill="#263238"/>
<path d="M183.221 178.286L180.745 173.974L191.523 169.985L192.279 175.7L183.221 178.286Z" fill="#407BFF"/>
<path d="M151.96 175.666V181.242H163.27L163.703 175.666H151.96Z" fill="#407BFF"/>
<path d="M212.329 43.3529C212.329 43.3529 209.049 56.2845 205.586 60.2909C205.586 60.2909 199.299 54.0099 197.388 48.5428C197.388 48.5428 197.209 45.9911 195.385 44.9L192.654 41.1649L188.099 42.8044L189.19 46.4472L193.93 49.0913C193.93 49.0913 199.94 65.6656 205.401 65.5733C210.862 65.4809 213.327 58.1953 213.327 58.1953L216.329 42.6081L212.329 43.3529Z" fill="#FF8B7B"/>
<path d="M194.04 50.6442L197.411 48.5428C197.411 48.5428 203.15 57.9182 205.834 59.8002C205.834 59.8002 209.177 53.7039 210.32 48.6871C210.919 45.9573 211.657 43.2597 212.531 40.6049L216.352 46.1412C216.352 46.1412 213.841 63.772 208.645 65.5616C203.45 67.3513 200.511 62.2768 199.328 60.2793C198.144 58.2819 194.04 50.6442 194.04 50.6442Z" fill="#263238"/>
<path d="M222.934 177.558C222.934 177.772 226.397 182.668 226.397 182.668L230.023 177.98L226.115 172.444L222.934 177.558Z" fill="#FF8B7B"/>
<path d="M224.764 180.797L228.516 176.727C228.78 176.443 229.145 176.275 229.533 176.26C229.92 176.245 230.298 176.384 230.583 176.646L233.839 179.66C233.98 179.79 234.094 179.946 234.174 180.12C234.255 180.294 234.3 180.482 234.308 180.674C234.315 180.865 234.285 181.056 234.218 181.236C234.152 181.416 234.05 181.58 233.92 181.721L223.251 193.267C222.987 193.549 222.623 193.716 222.237 193.731C221.851 193.746 221.475 193.608 221.19 193.348C220.935 193.113 220.772 192.796 220.73 192.452C220.688 192.108 220.769 191.761 220.959 191.471C222.206 189.572 224.654 185.358 224.383 181.9C224.366 181.7 224.392 181.498 224.457 181.308C224.523 181.119 224.627 180.944 224.764 180.797Z" fill="#263238"/>
<path d="M215.157 175.284L225.687 166.047L229.561 174.089L222.362 180.347L215.157 175.284Z" fill="#407BFF"/>
<path d="M211.307 70.6189C211.307 70.6189 199.951 120.192 199.761 132.084C199.57 143.977 209.944 164.604 216.502 174.262L225.335 167.236L212.536 136.062L218.477 97.2441L225.335 175.896L233.81 176.981C233.81 176.981 234.89 147.238 233.81 136.426C232.73 125.613 238.734 88.8385 234.289 74.7754L211.307 70.6189Z" fill="#263238"/>
<path d="M234.318 74.7639C234.318 74.7639 236.252 56.3249 239.964 49.1028L241.407 40.7493C241.407 40.7493 238.723 37.4471 232.638 37.551C226.553 37.6549 223.875 36.9737 223.875 36.9737C223.875 36.9737 215.925 36.4368 214.06 38.1918C212.196 39.9468 212.103 47.8905 211.792 51.7065C211.48 55.5224 210.752 73.0667 210.752 73.0667L234.318 74.7639Z" fill="#407BFF"/>
<path d="M233.781 36.939C233.781 36.939 224.637 47.648 226.369 74.7639L237.06 76.5997L235.605 65.3539L242.458 44.7961C242.458 44.7961 243.895 38.3938 233.781 36.939Z" fill="#263238"/>
<path d="M223.355 36.939C223.355 36.939 213.506 44.1322 212.75 71.7331L207.595 71.8774L211.815 49.8013C211.074 47.8089 210.977 45.6342 211.538 43.5838C212.115 41.5979 212.738 39.2656 214.066 38.1687C216.179 36.4195 219.545 36.5696 223.355 36.939Z" fill="#263238"/>
<path d="M235.421 43.4164C235.421 43.4164 241.552 58.2993 240.039 64.3205C240.039 64.3205 229.463 61.6014 224.585 56.8733C224.585 56.8733 223.055 54.2928 220.544 54.1023L215.717 51.6257L211.803 55.736L214.863 58.9805L221.213 59.2634C221.213 59.2634 236.223 73.4939 241.915 70.5265C244.577 69.1352 245.72 66.4335 246.182 63.9511C246.612 61.515 246.478 59.0126 245.789 56.6366L241.719 42.0713L235.421 43.4164Z" fill="#FF8B7B"/>
<path d="M220.826 60.6835L225.006 55.8227C225.006 55.8227 234.289 62.9812 240.016 64.3205C239.516 59.4302 238.745 54.5715 237.707 49.7667L234.82 44.7962L235.086 42.7063L242.083 41.8C242.083 41.8 248.433 59.552 246.747 65.9485C245.062 72.3451 241.442 72.9801 235.346 70.6189C229.249 68.2577 220.826 60.6835 220.826 60.6835Z" fill="#263238"/>
<path d="M233.925 189.838H228.112L227.777 185L227.61 182.581L227.512 181.184L233.92 181.721V185L233.925 189.838Z" fill="#FF8B7B"/>
<path d="M227.864 187.673H233.4C233.787 187.673 234.159 187.827 234.433 188.101C234.707 188.374 234.861 188.746 234.861 189.133V193.573C234.859 193.959 234.705 194.329 234.431 194.602C234.157 194.875 233.786 195.028 233.4 195.028H217.674C217.483 195.028 217.293 194.991 217.116 194.919C216.939 194.846 216.778 194.739 216.642 194.604C216.506 194.468 216.399 194.308 216.325 194.131C216.252 193.954 216.214 193.764 216.214 193.573C216.213 193.227 216.335 192.892 216.558 192.628C216.781 192.364 217.091 192.187 217.432 192.13C219.678 191.76 224.435 190.698 226.79 188.146C226.926 187.997 227.092 187.878 227.277 187.797C227.462 187.715 227.662 187.673 227.864 187.673Z" fill="#263238"/>
<path opacity="0.1" d="M233.781 36.939C232.728 38.332 231.837 39.8409 231.126 41.4362C229.056 46.0041 227.669 50.8514 227.009 55.8226L233.781 50.3382L232.309 45.6217L240.547 39.6408C240.547 39.6408 238.394 37.4528 233.781 36.939Z" fill="white"/>
<path opacity="0.1" d="M215.365 52.0933C215.365 52.0933 218.627 40.4606 223.355 36.9391C223.355 36.9391 217.749 36.1597 215.169 37.4702L215.746 45.6217L213.339 46.378L215.365 52.0933Z" fill="white"/>
<path d="M240.663 17.6802C241.771 20.457 240.582 23.5802 240.691 26.5649C240.738 27.9273 241.061 29.2667 241.096 30.606C241.13 31.9454 240.818 33.4232 239.82 34.3527C238.919 35.2013 237.632 35.4553 236.419 35.6805C234.526 36.0211 232.471 36.3444 230.773 35.4438C230.381 35.236 230.023 34.9704 229.619 34.7972C228.78 34.5109 227.885 34.4337 227.009 34.5721C226.136 34.7127 225.244 34.6694 224.388 34.4451C221.687 33.5041 223.546 29.7862 224.007 27.8811C224.719 24.9638 225.428 22.0485 226.132 19.135C229.047 18.5577 231.94 17.7495 234.861 17.1606C235.815 16.8885 236.819 16.845 237.793 17.0336C238.706 17.3107 239.75 17.9746 240.663 17.6802Z" fill="#263238"/>
<path d="M240.738 23.4186C240.512 24.177 240.025 24.8312 239.364 25.2659C238.688 25.6239 238.584 26.2589 238.642 26.9978C238.763 28.7297 239.704 31.1775 236.466 32.563C235.99 32.801 235.456 32.8965 234.928 32.8382C234.399 32.7798 233.899 32.57 233.487 32.234C231.212 30.4386 230.491 25.4045 230.491 25.4045L226.369 13.5178C226.382 13.4921 226.4 13.4687 226.421 13.4485L226.455 13.385C226.469 13.3614 226.487 13.34 226.507 13.3215C226.653 13.1183 226.813 12.9254 226.986 12.7442C227.115 12.5946 227.252 12.452 227.396 12.317C228.903 10.92 232.015 9.1361 236.477 12.115C241.379 15.3941 241.8 20.584 240.738 23.4186Z" fill="#263238"/>
<path d="M240.974 24.4231C241.026 25.8028 239.756 26.5937 238.665 27.0267C238.132 27.2276 237.581 27.3765 237.02 27.4712C236.004 29.1627 233.804 30.3578 233.804 30.3578C233.641 30.9849 233.542 31.6271 233.51 32.2744C233.451 33.841 233.55 35.4095 233.804 36.9563L232.315 39.2655C226.109 42.1059 223.898 36.9563 223.898 36.9563C226.172 36.7139 226.9 34.803 227.113 33.1981C227.201 32.4617 227.201 31.7176 227.113 30.9812C226.105 30.5568 225.213 29.8981 224.51 29.0598C223.807 28.2214 223.314 27.2276 223.072 26.1608C222.339 23.0549 222.939 20.1337 224.227 17.2645C224.744 16.1197 225.365 15.0241 226.08 13.9912L226.369 13.5236C226.382 13.4979 226.4 13.4745 226.421 13.4543C226.445 13.4094 226.474 13.3669 226.507 13.3273V13.2869C226.611 13.1541 226.761 12.9636 226.957 12.7558H226.992L234.78 11.7455L238.163 14.4473L239.346 21.144L237.614 23.205L236.893 24.0652L236.714 24.273L236.939 24.0825C238.313 22.9279 240.068 22.3506 240.709 23.4417C240.875 23.7428 240.966 24.0794 240.974 24.4231Z" fill="#FF8B7B"/>
<path d="M230.456 19.4237C230.358 19.8336 230.058 20.1164 229.792 20.0529C229.526 19.9894 229.382 19.6026 229.48 19.187C229.578 18.7713 229.879 18.4942 230.15 18.5577C230.421 18.6212 230.56 19.008 230.456 19.4237Z" fill="#263238"/>
<path d="M226.022 18.2286C225.924 18.6443 225.624 18.9272 225.353 18.8637C225.081 18.8002 224.943 18.4076 225.041 17.9977C225.139 17.5878 225.439 17.2992 225.71 17.3627C225.982 17.4262 226.12 17.8245 226.022 18.2286Z" fill="#263238"/>
<path d="M230.219 18.5866L229.151 18.0093C229.151 18.0093 229.336 19.1004 230.219 18.5866Z" fill="#263238"/>
<path d="M225.791 17.4262L224.723 16.8489C224.723 16.8489 224.925 17.9458 225.791 17.4262Z" fill="#263238"/>
<path d="M227.108 18.7194L226.091 22.3737C225.954 22.4168 225.81 22.4318 225.667 22.4177C225.524 22.4036 225.385 22.3608 225.259 22.2918C225.133 22.2228 225.022 22.129 224.933 22.0161C224.844 21.9032 224.778 21.7735 224.741 21.6347L227.108 18.7194Z" fill="#FF5652"/>
<path d="M227.327 24.9138C227.327 24.9138 229.85 25.2891 230.571 23.1819" stroke="#263238" stroke-linecap="round" stroke-linejoin="round"/>
<path d="M230.491 16.5602C230.704 16.4483 230.938 16.3812 231.179 16.3629C231.419 16.3446 231.661 16.3756 231.889 16.454C232.117 16.5324 232.327 16.6564 232.505 16.8186C232.684 16.9808 232.827 17.1777 232.927 17.3973" stroke="#263238" stroke-linecap="round" stroke-linejoin="round"/>
<path d="M226.975 15.0477C226.784 14.9205 226.569 14.8353 226.343 14.7978C226.117 14.7604 225.886 14.7715 225.665 14.8305C225.443 14.8895 225.237 14.995 225.06 15.14C224.883 15.285 224.738 15.4661 224.637 15.6712" stroke="#263238" stroke-linecap="round" stroke-linejoin="round"/>
<path d="M239.958 21.2364L236.968 24.0594H236.922C231.922 22.443 232.927 13.2061 232.927 13.2061C231.512 14.1067 226.501 13.6103 226.369 13.5063C226.64 13.1059 226.951 12.7345 227.298 12.3979C227.517 12.1843 228.216 12.2478 228.505 12.2247L230.346 12.0804L234.076 11.7802C234.185 11.7802 234.705 11.6474 234.797 11.7225L238.18 14.4243L239.958 21.2364Z" fill="#263238"/>
<path opacity="0.2" d="M229.659 31.3738C229.007 32.2264 228.111 32.8606 227.09 33.1923C227.178 32.456 227.178 31.7118 227.09 30.9755C227.921 31.2389 228.788 31.3732 229.659 31.3738Z" fill="black"/>
<path opacity="0.3" d="M217.23 105.563L217.871 89.081L218.506 97.2325L217.23 105.563Z" fill="black"/>
<path opacity="0.1" d="M233.92 182.281V185H227.777L227.61 182.581L233.92 182.281Z" fill="black"/>
<path d="M224.1 175.682L225.589 184.024H234.722L235.981 175.284L224.1 175.682Z" fill="#407BFF"/>
</svg>
