<svg width="20" height="18" viewBox="0 0 20 18" fill="none" xmlns="http://www.w3.org/2000/svg">
<path d="M0.96421 3.45915H3.73981C4.11266 4.37054 5.00334 5.03337 6.05972 5.03337C7.11611 5.03337 8.00679 4.39125 8.37963 3.45915H18.7778C19.2956 3.45915 19.7099 3.04488 19.7099 2.52704C19.7099 2.00921 19.2956 1.59494 18.7778 1.59494H8.37963C8.00679 0.642117 7.11611 0 6.05972 0C5.00334 0 4.11266 0.642117 3.73981 1.57422H0.96421C0.446374 1.57422 0.0321045 1.98849 0.0321045 2.50633C0.0321045 3.02417 0.446374 3.45915 0.96421 3.45915Z" fill="#A5A5A5"/>
<path d="M18.7778 8.07825H16.0022C15.6293 7.16686 14.7387 6.50403 13.6823 6.50403C12.6259 6.50403 11.7352 7.14615 11.3624 8.07825H0.96421C0.446374 8.07825 0.0321045 8.49252 0.0321045 9.01036C0.0321045 9.52819 0.446374 9.94246 0.96421 9.94246H11.3624C11.7352 10.8539 12.6259 11.5167 13.6823 11.5167C14.7387 11.5167 15.6293 10.8746 16.0022 9.94246H18.7778C19.2956 9.94246 19.7099 9.52819 19.7099 9.01036C19.7099 8.49252 19.2956 8.07825 18.7778 8.07825Z" fill="#A5A5A5"/>
<path d="M18.7778 14.5616H8.37963C8.00679 13.6502 7.11611 12.9873 6.05972 12.9873C5.00334 12.9873 4.11266 13.6295 3.73981 14.5616H0.96421C0.446374 14.5616 0.0321045 14.9758 0.0321045 15.4937C0.0321045 16.0115 0.446374 16.4258 0.96421 16.4258H3.73981C4.11266 17.3372 5.00334 18 6.05972 18C7.11611 18 8.00679 17.3579 8.37963 16.4258H18.7778C19.2956 16.4258 19.7099 16.0115 19.7099 15.4937C19.7099 14.9965 19.2956 14.5616 18.7778 14.5616Z" fill="#A5A5A5"/>
</svg>
