<svg width="21" height="20" viewBox="0 0 21 20" fill="none" xmlns="http://www.w3.org/2000/svg">
<path d="M17.6349 11.8083L17.2724 11.5167C17.175 11.4387 17.0963 11.3397 17.0422 11.2272C16.9881 11.1147 16.96 10.9915 16.9599 10.8667V7.50001C16.9594 6.05321 16.457 4.65138 15.5384 3.53365C14.6197 2.41592 13.3417 1.65153 11.9224 1.37085C11.8532 1.10243 11.6968 0.864629 11.4776 0.694845C11.2585 0.52506 10.9892 0.432922 10.712 0.432922C10.4348 0.432922 10.1655 0.52506 9.94637 0.694845C9.72726 0.864629 9.57079 1.10243 9.50159 1.37085C8.0815 1.65068 6.80256 2.41471 5.88308 3.53252C4.96361 4.65033 4.4606 6.05262 4.45992 7.50001V10.8667C4.45984 10.9915 4.43172 11.1147 4.37763 11.2272C4.32354 11.3397 4.24487 11.4387 4.14742 11.5167L3.78492 11.8083C3.34712 12.1583 2.99335 12.602 2.74963 13.1068C2.50591 13.6115 2.37843 14.1645 2.37659 14.725V15.4167C2.37659 15.8587 2.55218 16.2826 2.86474 16.5952C3.1773 16.9077 3.60123 17.0833 4.04325 17.0833H7.48492C7.67276 17.7949 8.09076 18.4242 8.67375 18.8733C9.25675 19.3223 9.97195 19.5658 10.7078 19.5658C11.4437 19.5658 12.1589 19.3223 12.7419 18.8733C13.3249 18.4242 13.7429 17.7949 13.9308 17.0833H17.3766C17.8186 17.0833 18.2425 16.9077 18.5551 16.5952C18.8677 16.2826 19.0433 15.8587 19.0433 15.4167V14.7333C19.0427 14.1714 18.9158 13.6168 18.672 13.1105C18.4282 12.6043 18.0738 12.1592 17.6349 11.8083ZM10.7099 17.9167C10.4191 17.9149 10.1337 17.8371 9.88228 17.6909C9.63083 17.5447 9.42201 17.3352 9.27659 17.0833H12.1474C12.0016 17.3358 11.7922 17.5457 11.5399 17.6919C11.2877 17.8382 11.0015 17.9156 10.7099 17.9167ZM17.3766 15.4167H4.04325V14.7333C4.0437 14.4211 4.11433 14.1129 4.24992 13.8317C4.38551 13.5504 4.58259 13.3032 4.82659 13.1083L5.18909 12.8167C5.48143 12.5826 5.71745 12.2859 5.87972 11.9484C6.04199 11.6108 6.12635 11.2412 6.12659 10.8667V7.50001C6.12659 6.28444 6.60947 5.11865 7.46902 4.25911C8.32856 3.39956 9.49435 2.91668 10.7099 2.91668C11.9255 2.91668 13.0913 3.39956 13.9508 4.25911C14.8104 5.11865 15.2933 6.28444 15.2933 7.50001V10.8667C15.2929 11.2419 15.3769 11.6124 15.5392 11.9506C15.7015 12.2889 15.9379 12.5863 16.2308 12.8208L16.5933 13.1125C16.8367 13.3069 17.0335 13.5534 17.169 13.834C17.3046 14.1145 17.3755 14.4218 17.3766 14.7333V15.4167Z" fill="#A5A5A5"/>
<circle cx="15.2098" cy="3.5" r="3" fill="#FE5C83" stroke="white"/>
</svg>
